<svg width="33" height="33" viewBox="0 0 33 33" fill="none" xmlns="http://www.w3.org/2000/svg">
<rect x="0.669983" y="0.390015" width="32" height="32" rx="16" fill="white"/>
<g clip-path="url(#clip0_1_1022)">
<path d="M18.661 8.14001C17.8983 8.14001 17.1687 8.30502 16.472 8.63502C15.7753 8.96501 15.1923 9.40868 14.723 9.96601C14.2683 9.37935 13.6963 8.92835 13.007 8.61301C12.3177 8.29768 11.577 8.14001 10.785 8.14001C9.89032 8.14001 9.05432 8.36001 8.27699 8.80001C7.52899 9.22535 6.93499 9.80468 6.49499 10.538C6.05499 11.2713 5.83499 12.0633 5.83499 12.914C5.83499 14.5127 6.26766 16.0893 7.13299 17.644C7.82232 18.8907 8.78299 20.1007 10.015 21.274C10.895 22.1247 11.8777 22.9093 12.963 23.628C13.6377 24.0973 14.1363 24.4053 14.459 24.552C14.5177 24.6107 14.6057 24.64 14.723 24.64C14.8403 24.64 14.965 24.6107 15.097 24.552C15.449 24.376 15.9477 24.068 16.593 23.628C17.6637 22.9093 18.6463 22.1247 19.541 21.274C20.7583 20.1007 21.7117 18.8907 22.401 17.644C23.2663 16.0893 23.699 14.5127 23.699 12.914C23.699 12.0633 23.4717 11.2713 23.017 10.538C22.5623 9.80468 21.9463 9.22168 21.169 8.78901C20.3917 8.35635 19.5557 8.14001 18.661 8.14001ZM14.723 23.166C13.7843 22.594 12.919 21.9853 12.127 21.34C10.7337 20.2107 9.63366 19.0447 8.82699 17.842C7.74166 16.2433 7.19899 14.63 7.19899 13.002C7.19899 12.3713 7.36399 11.7883 7.69399 11.253C8.02399 10.7177 8.46399 10.2923 9.01399 9.97701C9.56399 9.66168 10.1543 9.50401 10.785 9.50401C11.5183 9.50401 12.182 9.69468 12.776 10.076C13.37 10.4573 13.8063 10.9707 14.085 11.616C14.1437 11.7627 14.2573 11.8653 14.426 11.924C14.5947 11.9827 14.7707 11.9827 14.954 11.924C15.1373 11.8653 15.273 11.7627 15.361 11.616C15.6397 10.9707 16.0797 10.4573 16.681 10.076C17.2823 9.69468 17.9423 9.50401 18.661 9.50401C19.321 9.50401 19.926 9.66168 20.476 9.97701C21.026 10.2923 21.4587 10.7177 21.774 11.253C22.0893 11.7883 22.247 12.3713 22.247 13.002C22.247 14.6007 21.7043 16.1993 20.619 17.798C19.7977 19.0007 18.6977 20.174 17.319 21.318C16.4977 21.9927 15.6323 22.6087 14.723 23.166Z" fill="#030712"/>
</g>
<defs>
<clipPath id="clip0_1_1022">
<rect width="21.69" height="22" fill="white" transform="matrix(1 0 0 -1 5.82999 27.39)"/>
</clipPath>
</defs>
</svg>
