<svg width="36" height="35" viewBox="0 0 36 35" fill="none" xmlns="http://www.w3.org/2000/svg">
<rect y="0.519989" width="36" height="34" rx="8" fill="#16A34A"/>
<path d="M24.94 10.02H8.7C8.5 10.0467 8.33333 10.14 8.2 10.3C8.06667 10.46 8 10.64 8 10.84C8 11.04 8.06667 11.2233 8.2 11.39C8.33333 11.5567 8.5 11.6533 8.7 11.68H11.92L11.34 19.06V19.2C11.34 19.6533 11.5033 20.0433 11.83 20.37C12.1567 20.6967 12.5467 20.86 13 20.86H23.22C23.62 20.86 23.97 20.7367 24.27 20.49C24.57 20.2433 24.76 19.94 24.84 19.58L26.56 12.06C26.5867 11.9 26.6 11.7733 26.6 11.68C26.6 11.2133 26.44 10.82 26.12 10.5C25.8 10.18 25.4067 10.02 24.94 10.02ZM23.22 19.18H13L13.58 11.68H24.94L23.22 19.18ZM14.54 25.02C15.0067 25.02 15.4033 24.8567 15.73 24.53C16.0567 24.2033 16.22 23.8067 16.22 23.34C16.22 22.8733 16.0567 22.48 15.73 22.16C15.4033 21.84 15.0067 21.68 14.54 21.68C14.0867 21.68 13.6967 21.84 13.37 22.16C13.0433 22.48 12.88 22.8733 12.88 23.34C12.88 23.8067 13.0433 24.2033 13.37 24.53C13.6967 24.8567 14.0867 25.02 14.54 25.02ZM22.04 25.02C22.5067 25.02 22.9033 24.8567 23.23 24.53C23.5567 24.2033 23.72 23.8067 23.72 23.34C23.72 22.8733 23.5567 22.48 23.23 22.16C22.9033 21.84 22.5067 21.68 22.04 21.68C21.5867 21.68 21.1967 21.84 20.87 22.16C20.5433 22.48 20.38 22.8733 20.38 23.34C20.38 23.8067 20.5433 24.2033 20.87 24.53C21.1967 24.8567 21.5867 25.02 22.04 25.02Z" fill="white"/>
</svg>
