<svg width="37" height="37" viewBox="0 0 37 37" fill="none" xmlns="http://www.w3.org/2000/svg">
<rect x="1.13" y="1.08002" width="35" height="35" rx="5.5" stroke="#E5E7EB"/>
<g clip-path="url(#clip0_1_1005)">
<path d="M3.01404 18.308C3.30871 18.308 3.56937 18.2004 3.79604 17.985C4.02271 17.7697 4.13604 17.492 4.13604 17.152V15.758C4.13604 14.9194 4.34571 14.1544 4.76504 13.463C5.18437 12.7717 5.74537 12.222 6.44804 11.814C7.15071 11.406 7.89871 11.202 8.69204 11.202H25.964L22.156 15.044C21.9294 15.248 21.816 15.503 21.816 15.809C21.816 16.115 21.9294 16.3814 22.156 16.608C22.3374 16.7894 22.564 16.88 22.836 16.88C22.972 16.88 23.108 16.8517 23.244 16.795C23.38 16.7384 23.482 16.676 23.55 16.608L29.228 10.93C29.2734 10.8847 29.3187 10.828 29.364 10.76C29.4094 10.692 29.4547 10.658 29.5 10.658C29.636 10.3633 29.636 10.08 29.5 9.80802C29.5 9.71735 29.4717 9.64368 29.415 9.58702C29.3584 9.53035 29.296 9.50202 29.228 9.50202L23.55 3.85802C23.346 3.63135 23.091 3.51802 22.785 3.51802C22.479 3.51802 22.2127 3.63135 21.986 3.85802C21.7594 4.08468 21.6517 4.34535 21.663 4.64002C21.6744 4.93468 21.782 5.18402 21.986 5.38802L25.828 9.23002H8.69204C7.46804 9.23002 6.33471 9.53035 5.29204 10.131C4.24937 10.7317 3.42204 11.5534 2.81004 12.596C2.19804 13.6387 1.89204 14.7833 1.89204 16.03V17.458C1.89204 17.6167 2.01104 17.798 2.24904 18.002C2.48704 18.206 2.74204 18.308 3.01404 18.308ZM28.514 18.988C28.2194 18.988 27.9587 19.0957 27.732 19.311C27.5054 19.5264 27.392 19.804 27.392 20.144V21.538C27.392 22.3767 27.1824 23.1417 26.763 23.833C26.3437 24.5244 25.7827 25.074 25.08 25.482C24.3774 25.89 23.6294 26.094 22.836 26.094H5.56404L9.40604 22.252C9.61004 22.048 9.71204 21.793 9.71204 21.487C9.71204 21.181 9.61004 20.9147 9.40604 20.688C9.20204 20.4614 8.94137 20.3537 8.62404 20.365C8.30671 20.3764 8.04604 20.484 7.84204 20.688L2.16404 26.366C2.11871 26.4114 2.07337 26.468 2.02804 26.536C1.98271 26.604 1.93737 26.638 1.89204 26.638C1.75604 26.9327 1.75604 27.216 1.89204 27.488C1.89204 27.5787 1.92037 27.6524 1.97704 27.709C2.03371 27.7657 2.09604 27.794 2.16404 27.794L7.84204 33.472C8.02337 33.6534 8.25571 33.744 8.53904 33.744C8.82237 33.744 9.05471 33.6534 9.23604 33.472C9.46271 33.2454 9.57604 32.979 9.57604 32.673C9.57604 32.367 9.46271 32.112 9.23604 31.908L5.42804 28.066H22.836C24.06 28.066 25.1934 27.7657 26.236 27.165C27.2787 26.5644 28.106 25.7427 28.718 24.7C29.33 23.6574 29.636 22.5127 29.636 21.266V19.838C29.636 19.634 29.5227 19.4414 29.296 19.26C29.0694 19.0787 28.8087 18.988 28.514 18.988Z" fill="#030712"/>
</g>
<defs>
<clipPath id="clip0_1_1005">
<rect width="34" height="34" fill="white" transform="matrix(1 0 0 -1 1.63 35.58)"/>
</clipPath>
</defs>
</svg>
