<svg width="37" height="37" viewBox="0 0 37 37" fill="none" xmlns="http://www.w3.org/2000/svg">
<rect x="1.46997" y="1.08002" width="35" height="35" rx="5.5" stroke="#E5E7EB"/>
<path d="M25.356 20.192C25.1653 20.192 24.9967 20.258 24.85 20.39C24.7033 20.522 24.63 20.698 24.63 20.918V24.592C24.63 24.9 24.5163 25.1604 24.289 25.373C24.0617 25.5857 23.8087 25.692 23.53 25.692H10.682C10.374 25.692 10.1137 25.5784 9.901 25.351C9.68834 25.1237 9.582 24.8707 9.582 24.592V20.918C9.582 20.7274 9.516 20.5587 9.384 20.412C9.252 20.2654 9.076 20.192 8.856 20.192C8.636 20.192 8.46 20.2507 8.328 20.368C8.196 20.4854 8.13 20.6394 8.13 20.83V24.504C8.13 24.9587 8.24367 25.3804 8.471 25.769C8.69834 26.1577 9.00634 26.4694 9.395 26.704C9.78367 26.9387 10.2127 27.056 10.682 27.056H23.53C23.9847 27.056 24.4063 26.9424 24.795 26.715C25.1837 26.4877 25.4953 26.1797 25.73 25.791C25.9647 25.4024 26.082 24.9734 26.082 24.504V20.83C26.082 20.654 26.0087 20.5037 25.862 20.379C25.7153 20.2544 25.5467 20.192 25.356 20.192ZM12.992 14.868L16.38 11.48V20.83C16.38 21.0207 16.446 21.1894 16.578 21.336C16.71 21.4827 16.8897 21.556 17.117 21.556C17.3443 21.556 17.5203 21.4937 17.645 21.369C17.7697 21.2444 17.832 21.0647 17.832 20.83V11.48L21.242 14.868C21.3593 14.9854 21.506 15.044 21.682 15.044C21.77 15.044 21.858 15.0257 21.946 14.989C22.034 14.9524 22.1 14.912 22.144 14.868C22.2907 14.736 22.364 14.571 22.364 14.373C22.364 14.175 22.2907 14.0027 22.144 13.856L17.568 9.28003C17.5387 9.2507 17.502 9.22136 17.458 9.19203C17.414 9.1627 17.392 9.13336 17.392 9.10403C17.2013 9.00136 17.018 9.00136 16.842 9.10403C16.7833 9.10403 16.7357 9.12236 16.699 9.15903C16.6623 9.1957 16.644 9.23603 16.644 9.28003L12.068 13.856C11.9213 14.0027 11.848 14.175 11.848 14.373C11.848 14.571 11.9213 14.736 12.068 14.868C12.2147 15 12.3687 15.0697 12.53 15.077C12.6913 15.0844 12.8453 15.0147 12.992 14.868Z" fill="#030712"/>
</svg>
