<svg width="42" height="40" viewBox="0 0 42 40" fill="none" xmlns="http://www.w3.org/2000/svg">
<path d="M26.698 5.23403L18.04 1.98403C17.78 1.88003 17.598 1.88003 17.494 1.98403L8.81003 5.23403C8.60203 5.28603 8.4417 5.3857 8.32903 5.53303C8.21637 5.68036 8.16003 5.83203 8.16003 5.98803V13.58C8.16003 15.5214 8.83603 17.428 10.188 19.3C11.2107 20.6694 12.554 21.978 14.218 23.226C15.102 23.8847 16.064 24.5 17.104 25.072L17.26 25.176C17.3467 25.2454 17.4594 25.28 17.598 25.28C17.7367 25.28 17.8407 25.2454 17.91 25.176L18.04 25.098C19.028 24.5607 19.964 23.9627 20.848 23.304C22.5467 22.056 23.9074 20.7387 24.93 19.352C26.3167 17.4627 27.01 15.5387 27.01 13.58V5.98803C27.114 5.83203 27.1314 5.68036 27.062 5.53303C26.9927 5.3857 26.8714 5.28603 26.698 5.23403ZM25.502 13.58C25.502 15.14 24.9387 16.7 23.812 18.26C22.9454 19.4387 21.7927 20.574 20.354 21.666C19.4354 22.3594 18.5167 22.9487 17.598 23.434C16.714 22.966 15.7954 22.3767 14.842 21.666C13.438 20.574 12.3114 19.4387 11.462 18.26C10.3527 16.7 9.79803 15.14 9.79803 13.58V6.53403L17.702 3.62203L25.502 6.53403V13.58ZM14.998 13.034C14.8247 12.878 14.6254 12.8 14.4 12.8C14.1747 12.8 13.9754 12.878 13.802 13.034C13.6287 13.19 13.5464 13.385 13.555 13.619C13.5637 13.853 13.646 14.0567 13.802 14.23L15.96 16.388C16.1507 16.544 16.3327 16.622 16.506 16.622C16.61 16.622 16.714 16.596 16.818 16.544C16.922 16.492 17 16.44 17.052 16.388L21.394 12.072C21.55 11.8987 21.628 11.695 21.628 11.461C21.628 11.227 21.55 11.032 21.394 10.876C21.238 10.72 21.0387 10.6377 20.796 10.629C20.5534 10.6204 20.354 10.7027 20.198 10.876L16.61 14.542L14.998 13.034Z" fill="#6B7280"/>
</svg>
