<svg width="64" height="31" viewBox="0 0 64 31" fill="none" xmlns="http://www.w3.org/2000/svg">
<rect x="0.5" y="0.22998" width="30" height="30" rx="6" fill="#D1D5DB"/>
<g clip-path="url(#clip0_1_613)">
<path d="M11.754 7.958H8.01C7.626 7.958 7.305 8.078 7.047 8.318C6.789 8.558 6.66 8.864 6.66 9.236V12.98C6.66 13.352 6.792 13.67 7.056 13.934C7.32 14.198 7.638 14.33 8.01 14.33H11.754C12.138 14.33 12.459 14.198 12.717 13.934C12.975 13.67 13.104 13.352 13.104 12.98V9.236C13.104 8.864 12.975 8.558 12.717 8.318C12.459 8.078 12.138 7.958 11.754 7.958ZM11.898 12.98C11.898 13.016 11.883 13.049 11.853 13.079C11.823 13.109 11.79 13.124 11.754 13.124H8.01C7.974 13.16 7.938 13.157 7.902 13.115C7.866 13.073 7.848 13.028 7.848 12.98V9.236C7.848 9.188 7.866 9.149 7.902 9.119C7.938 9.089 7.974 9.074 8.01 9.074H11.754C11.79 9.074 11.823 9.089 11.853 9.119C11.883 9.149 11.898 9.188 11.898 9.236V12.98ZM19.998 7.958H16.254C15.882 7.958 15.564 8.087 15.3 8.345C15.036 8.603 14.904 8.924 14.904 9.308V13.052C14.904 13.424 15.036 13.742 15.3 14.006C15.564 14.27 15.882 14.402 16.254 14.402H19.998C20.382 14.402 20.703 14.27 20.961 14.006C21.219 13.742 21.348 13.424 21.348 13.052V9.236C21.348 8.864 21.219 8.558 20.961 8.318C20.703 8.078 20.382 7.958 19.998 7.958ZM20.16 12.98C20.16 13.016 20.145 13.049 20.115 13.079C20.085 13.109 20.046 13.124 19.998 13.124H16.254C16.218 13.124 16.185 13.109 16.155 13.079C16.125 13.049 16.11 13.016 16.11 12.98V9.236C16.11 9.188 16.125 9.149 16.155 9.119C16.185 9.089 16.218 9.074 16.254 9.074H19.998C20.046 9.074 20.085 9.089 20.115 9.119C20.145 9.149 20.16 9.188 20.16 9.236V12.98ZM19.998 16.202H16.254C15.882 16.202 15.564 16.331 15.3 16.589C15.036 16.847 14.904 17.168 14.904 17.552V21.296C14.904 21.68 15.036 22.004 15.3 22.268C15.564 22.532 15.882 22.664 16.254 22.664H19.998C20.37 22.664 20.688 22.532 20.952 22.268C21.216 22.004 21.348 21.68 21.348 21.296V17.552C21.348 17.144 21.219 16.817 20.961 16.571C20.703 16.325 20.382 16.202 19.998 16.202ZM20.16 21.224C20.16 21.26 20.145 21.296 20.115 21.332C20.085 21.368 20.046 21.386 19.998 21.386H16.254C16.218 21.386 16.185 21.368 16.155 21.332C16.125 21.296 16.11 21.26 16.11 21.224V17.48C16.11 17.444 16.125 17.411 16.155 17.381C16.185 17.351 16.218 17.336 16.254 17.336H19.998C20.046 17.336 20.085 17.351 20.115 17.381C20.145 17.411 20.16 17.444 20.16 17.48V21.224ZM11.754 16.202H8.01C7.638 16.202 7.32 16.331 7.056 16.589C6.792 16.847 6.66 17.168 6.66 17.552V21.296C6.66 21.68 6.792 22.004 7.056 22.268C7.32 22.532 7.638 22.664 8.01 22.664H11.754C12.126 22.664 12.444 22.532 12.708 22.268C12.972 22.004 13.104 21.68 13.104 21.296V17.552C13.104 17.144 12.975 16.817 12.717 16.571C12.459 16.325 12.138 16.202 11.754 16.202ZM11.898 21.224C11.898 21.26 11.883 21.296 11.853 21.332C11.823 21.368 11.79 21.386 11.754 21.386H8.01C7.974 21.386 7.938 21.368 7.902 21.332C7.866 21.296 7.848 21.26 7.848 21.224V17.48C7.848 17.444 7.866 17.411 7.902 17.381C7.938 17.351 7.974 17.336 8.01 17.336H11.754C11.79 17.336 11.823 17.351 11.853 17.381C11.883 17.411 11.898 17.444 11.898 17.48V21.224Z" fill="#111827"/>
</g>
<g clip-path="url(#clip1_1_613)">
<path d="M44.754 7.958H41.01C40.626 7.958 40.305 8.078 40.047 8.318C39.789 8.558 39.66 8.864 39.66 9.236V12.98C39.66 13.352 39.792 13.67 40.056 13.934C40.32 14.198 40.638 14.33 41.01 14.33H44.754C45.138 14.33 45.459 14.198 45.717 13.934C45.975 13.67 46.104 13.352 46.104 12.98V9.236C46.104 8.864 45.975 8.558 45.717 8.318C45.459 8.078 45.138 7.958 44.754 7.958ZM44.898 12.98C44.898 13.016 44.883 13.049 44.853 13.079C44.823 13.109 44.79 13.124 44.754 13.124H41.01C40.974 13.16 40.938 13.157 40.902 13.115C40.866 13.073 40.848 13.028 40.848 12.98V9.236C40.848 9.188 40.866 9.149 40.902 9.119C40.938 9.089 40.974 9.074 41.01 9.074H44.754C44.79 9.074 44.823 9.089 44.853 9.119C44.883 9.149 44.898 9.188 44.898 9.236V12.98ZM44.754 16.202H41.01C40.638 16.202 40.32 16.331 40.056 16.589C39.792 16.847 39.66 17.168 39.66 17.552V21.296C39.66 21.68 39.792 22.004 40.056 22.268C40.32 22.532 40.638 22.664 41.01 22.664H44.754C45.126 22.664 45.444 22.532 45.708 22.268C45.972 22.004 46.104 21.68 46.104 21.296V17.552C46.104 17.144 45.975 16.817 45.717 16.571C45.459 16.325 45.138 16.202 44.754 16.202ZM44.898 21.224C44.898 21.26 44.883 21.296 44.853 21.332C44.823 21.368 44.79 21.386 44.754 21.386H41.01C40.974 21.386 40.938 21.368 40.902 21.332C40.866 21.296 40.848 21.26 40.848 21.224V17.48C40.848 17.444 40.866 17.411 40.902 17.381C40.938 17.351 40.974 17.336 41.01 17.336H44.754C44.79 17.336 44.823 17.351 44.853 17.381C44.883 17.411 44.898 17.444 44.898 17.48V21.224ZM48.498 9.83H53.754C53.91 9.83 54.048 9.773 54.168 9.659C54.288 9.545 54.348 9.404 54.348 9.236C54.348 9.068 54.291 8.936 54.177 8.84C54.063 8.744 53.922 8.696 53.754 8.696H48.498C48.342 8.696 48.204 8.753 48.084 8.867C47.964 8.981 47.904 9.128 47.904 9.308C47.904 9.488 47.961 9.62 48.075 9.704C48.189 9.788 48.33 9.83 48.498 9.83ZM53.754 12.458H48.498C48.342 12.458 48.204 12.512 48.084 12.62C47.964 12.728 47.904 12.875 47.904 13.061C47.904 13.247 47.958 13.391 48.066 13.493C48.174 13.595 48.318 13.646 48.498 13.646H53.754C53.91 13.646 54.048 13.592 54.168 13.484C54.288 13.376 54.348 13.232 54.348 13.052C54.348 12.872 54.288 12.728 54.168 12.62C54.048 12.512 53.91 12.458 53.754 12.458ZM53.754 16.958H48.498C48.342 16.958 48.204 17.012 48.084 17.12C47.964 17.228 47.904 17.375 47.904 17.561C47.904 17.747 47.958 17.891 48.066 17.993C48.174 18.095 48.318 18.146 48.498 18.146H53.754C53.91 18.146 54.048 18.092 54.168 17.984C54.288 17.876 54.348 17.732 54.348 17.552C54.348 17.372 54.288 17.228 54.168 17.12C54.048 17.012 53.91 16.958 53.754 16.958ZM53.754 20.702H48.498C48.342 20.702 48.204 20.759 48.084 20.873C47.964 20.987 47.904 21.131 47.904 21.305C47.904 21.479 47.958 21.623 48.066 21.737C48.174 21.851 48.318 21.908 48.498 21.908H53.754C53.91 21.908 54.048 21.851 54.168 21.737C54.288 21.623 54.348 21.476 54.348 21.296C54.348 21.116 54.288 20.972 54.168 20.864C54.048 20.756 53.91 20.702 53.754 20.702Z" fill="#6B7280"/>
</g>
<defs>
<clipPath id="clip0_1_613">
<rect width="18" height="18" fill="white" transform="matrix(1 0 0 -1 6.5 24.23)"/>
</clipPath>
<clipPath id="clip1_1_613">
<rect width="18" height="18" fill="white" transform="matrix(1 0 0 -1 39.5 24.23)"/>
</clipPath>
</defs>
</svg>
