<svg width="36" height="47" viewBox="0 0 36 47" fill="none" xmlns="http://www.w3.org/2000/svg">
<g clip-path="url(#clip0_1_978)">
<path d="M20.149 23.0871H10.221C10.0737 23.0871 9.94337 23.1381 9.83003 23.2401C9.7167 23.3421 9.66003 23.4809 9.66003 23.6566C9.66003 23.8323 9.71103 23.9683 9.81303 24.0646C9.91503 24.1609 10.051 24.2091 10.221 24.2091H20.149C20.2964 24.2091 20.4267 24.1581 20.54 24.0561C20.6534 23.9541 20.71 23.8181 20.71 23.6481C20.71 23.4781 20.6534 23.3421 20.54 23.2401C20.4267 23.1381 20.2964 23.0871 20.149 23.0871Z" fill="#030712"/>
</g>
<defs>
<clipPath id="clip0_1_978">
<rect width="17" height="17" fill="white" transform="matrix(1 0 0 -1 9.5 32.0801)"/>
</clipPath>
</defs>
</svg>
