<svg width="20" height="15" viewBox="0 0 20 15" fill="none" xmlns="http://www.w3.org/2000/svg">
<g clip-path="url(#clip0_1_37)">
<path d="M15.8541 7.1481C15.8541 7.1201 15.8424 7.09443 15.8191 7.0711C15.7957 7.04776 15.7701 7.0361 15.7421 7.0361L13.4041 4.6981C13.3107 4.6141 13.2034 4.5721 13.0821 4.5721C12.9607 4.5721 12.8534 4.6141 12.7601 4.6981C12.6667 4.7821 12.6224 4.88943 12.6271 5.0201C12.6317 5.15076 12.6761 5.2581 12.7601 5.3421L14.3421 6.9241H3.77206C3.65073 6.9241 3.54339 6.9661 3.45006 7.0501C3.35673 7.1341 3.31006 7.24843 3.31006 7.3931C3.31006 7.53776 3.35206 7.64976 3.43606 7.7291C3.52006 7.80843 3.63206 7.8481 3.77206 7.8481H14.3981L12.8161 9.4301C12.7321 9.5141 12.6901 9.6191 12.6901 9.7451C12.6901 9.8711 12.7321 9.98076 12.8161 10.0741C12.8441 10.1021 12.8861 10.1278 12.9421 10.1511C12.9981 10.1744 13.0541 10.1861 13.1101 10.1861C13.1661 10.1861 13.2221 10.1744 13.2781 10.1511C13.3341 10.1278 13.3761 10.1021 13.4041 10.0741L15.7421 7.7361C15.7607 7.71743 15.7794 7.6941 15.7981 7.6661C15.8167 7.6381 15.8354 7.6241 15.8541 7.6241C15.8821 7.50276 15.8961 7.40943 15.8961 7.3441C15.8961 7.27876 15.8821 7.21343 15.8541 7.1481Z" fill="#212529"/>
</g>
<defs>
<clipPath id="clip0_1_37">
<rect width="14" height="14" fill="white" transform="matrix(1 0 0 -1 3.19006 14.3301)"/>
</clipPath>
</defs>
</svg>
