<svg width="68" height="12" viewBox="0 0 68 12" fill="none" xmlns="http://www.w3.org/2000/svg">
<g clip-path="url(#clip0_1_1063)">
<g clip-path="url(#clip1_1_1063)">
<path d="M6.96204 0.835011C6.90337 0.717678 6.81904 0.624178 6.70904 0.554511C6.59904 0.484844 6.47804 0.450011 6.34604 0.450011C6.21404 0.450011 6.09121 0.484844 5.97754 0.554511C5.86387 0.624178 5.77771 0.717678 5.71904 0.835011L4.34404 3.68401L1.25304 4.13501C1.12837 4.14968 1.01471 4.19918 0.912041 4.28351C0.809374 4.36784 0.739708 4.47234 0.703041 4.59701C0.666374 4.72168 0.662708 4.84818 0.692041 4.97651C0.721374 5.10484 0.783708 5.21301 0.879041 5.30101L3.11204 7.52301L2.58404 10.647C2.56204 10.779 2.57671 10.9037 2.62804 11.021C2.67937 11.1383 2.75637 11.2373 2.85904 11.318C2.96171 11.3987 3.07904 11.4427 3.21104 11.45C3.34304 11.4573 3.46771 11.4317 3.58504 11.373L6.34604 9.89901L9.10704 11.373C9.22437 11.4317 9.34721 11.4573 9.47554 11.45C9.60387 11.4427 9.72304 11.4005 9.83304 11.3235C9.94304 11.2465 10.0219 11.1475 10.0695 11.0265C10.1172 10.9055 10.13 10.779 10.108 10.647L9.56904 7.52301L11.813 5.30101C11.9084 5.21301 11.9707 5.10484 12 4.97651C12.0294 4.84818 12.022 4.72168 11.978 4.59701C11.934 4.47234 11.8644 4.36784 11.769 4.28351C11.6737 4.19918 11.56 4.14968 11.428 4.13501L8.34804 3.68401L6.96204 0.835011Z" fill="#D1D5DB"/>
<path d="M20.337 0.835011C20.2784 0.717678 20.194 0.624178 20.084 0.554511C19.974 0.484844 19.853 0.450011 19.721 0.450011C19.589 0.450011 19.4662 0.484844 19.3525 0.554511C19.2389 0.624178 19.1527 0.717678 19.094 0.835011L17.719 3.68401L14.628 4.13501C14.5034 4.14968 14.3897 4.19918 14.287 4.28351C14.1844 4.36784 14.1147 4.47234 14.078 4.59701C14.0414 4.72168 14.0377 4.84818 14.067 4.97651C14.0964 5.10484 14.1587 5.21301 14.254 5.30101L16.487 7.52301L15.959 10.647C15.937 10.779 15.9517 10.9037 16.003 11.021C16.0544 11.1383 16.1314 11.2373 16.234 11.318C16.3367 11.3987 16.454 11.4427 16.586 11.45C16.718 11.4573 16.8427 11.4317 16.96 11.373L19.721 9.89901L22.482 11.373C22.5994 11.4317 22.7222 11.4573 22.8505 11.45C22.9789 11.4427 23.098 11.4005 23.208 11.3235C23.318 11.2465 23.3969 11.1475 23.4445 11.0265C23.4922 10.9055 23.505 10.779 23.483 10.647L22.944 7.52301L25.188 5.30101C25.2834 5.21301 25.3457 5.10484 25.375 4.97651C25.4044 4.84818 25.397 4.72168 25.353 4.59701C25.309 4.47234 25.2394 4.36784 25.144 4.28351C25.0487 4.19918 24.935 4.14968 24.803 4.13501L21.723 3.68401L20.337 0.835011Z" fill="#D1D5DB"/>
<path d="M33.712 0.835011C33.6534 0.717678 33.569 0.624178 33.459 0.554511C33.349 0.484844 33.228 0.450011 33.096 0.450011C32.964 0.450011 32.8412 0.484844 32.7275 0.554511C32.6139 0.624178 32.5277 0.717678 32.469 0.835011L31.094 3.68401L28.003 4.13501C27.8784 4.14968 27.7647 4.19918 27.662 4.28351C27.5594 4.36784 27.4897 4.47234 27.453 4.59701C27.4164 4.72168 27.4127 4.84818 27.442 4.97651C27.4714 5.10484 27.5337 5.21301 27.629 5.30101L29.862 7.52301L29.334 10.647C29.312 10.779 29.3267 10.9037 29.378 11.021C29.4294 11.1383 29.5064 11.2373 29.609 11.318C29.7117 11.3987 29.829 11.4427 29.961 11.45C30.093 11.4573 30.2177 11.4317 30.335 11.373L33.096 9.89901L35.857 11.373C35.9744 11.4317 36.0972 11.4573 36.2255 11.45C36.3539 11.4427 36.473 11.4005 36.583 11.3235C36.693 11.2465 36.7719 11.1475 36.8195 11.0265C36.8672 10.9055 36.88 10.779 36.858 10.647L36.319 7.52301L38.563 5.30101C38.6584 5.21301 38.7207 5.10484 38.75 4.97651C38.7794 4.84818 38.772 4.72168 38.728 4.59701C38.684 4.47234 38.6144 4.36784 38.519 4.28351C38.4237 4.19918 38.31 4.14968 38.178 4.13501L35.098 3.68401L33.712 0.835011Z" fill="#D1D5DB"/>
<path d="M47.087 0.835011C47.0284 0.717678 46.944 0.624178 46.834 0.554511C46.724 0.484844 46.603 0.450011 46.471 0.450011C46.339 0.450011 46.2162 0.484844 46.1025 0.554511C45.9889 0.624178 45.9027 0.717678 45.844 0.835011L44.469 3.68401L41.378 4.13501C41.2534 4.14968 41.1397 4.19918 41.037 4.28351C40.9344 4.36784 40.8647 4.47234 40.828 4.59701C40.7914 4.72168 40.7877 4.84818 40.817 4.97651C40.8464 5.10484 40.9087 5.21301 41.004 5.30101L43.237 7.52301L42.709 10.647C42.687 10.779 42.7017 10.9037 42.753 11.021C42.8044 11.1383 42.8814 11.2373 42.984 11.318C43.0867 11.3987 43.204 11.4427 43.336 11.45C43.468 11.4573 43.5927 11.4317 43.71 11.373L46.471 9.89901L49.232 11.373C49.3494 11.4317 49.4722 11.4573 49.6005 11.45C49.7289 11.4427 49.848 11.4005 49.958 11.3235C50.068 11.2465 50.1469 11.1475 50.1945 11.0265C50.2422 10.9055 50.255 10.779 50.233 10.647L49.694 7.52301L51.938 5.30101C52.0334 5.21301 52.0957 5.10484 52.125 4.97651C52.1544 4.84818 52.147 4.72168 52.103 4.59701C52.059 4.47234 51.9894 4.36784 51.894 4.28351C51.7987 4.19918 51.685 4.14968 51.553 4.13501L48.473 3.68401L47.087 0.835011Z" fill="#D1D5DB"/>
<path d="M60.4621 0.835011C60.4034 0.717678 60.3191 0.624178 60.2091 0.554511C60.0991 0.484844 59.9781 0.450011 59.8461 0.450011C59.7141 0.450011 59.5913 0.484844 59.4776 0.554511C59.3639 0.624178 59.2778 0.717678 59.2191 0.835011L57.8441 3.68401L54.7531 4.13501C54.6284 4.14968 54.5148 4.19918 54.4121 4.28351C54.3094 4.36784 54.2398 4.47234 54.2031 4.59701C54.1664 4.72168 54.1628 4.84818 54.1921 4.97651C54.2214 5.10484 54.2838 5.21301 54.3791 5.30101L56.6121 7.52301L56.0841 10.647C56.0621 10.779 56.0768 10.9037 56.1281 11.021C56.1794 11.1383 56.2564 11.2373 56.3591 11.318C56.4618 11.3987 56.5791 11.4427 56.7111 11.45C56.8431 11.4573 56.9678 11.4317 57.0851 11.373L59.8461 9.89901L62.6071 11.373C62.7244 11.4317 62.8473 11.4573 62.9756 11.45C63.1039 11.4427 63.2231 11.4005 63.3331 11.3235C63.4431 11.2465 63.5219 11.1475 63.5696 11.0265C63.6173 10.9055 63.6301 10.779 63.6081 10.647L63.0691 7.52301L65.3131 5.30101C65.4084 5.21301 65.4708 5.10484 65.5001 4.97651C65.5294 4.84818 65.5221 4.72168 65.4781 4.59701C65.4341 4.47234 65.3644 4.36784 65.2691 4.28351C65.1738 4.19918 65.0601 4.14968 64.9281 4.13501L61.8481 3.68401L60.4621 0.835011Z" fill="#D1D5DB"/>
</g>
<g clip-path="url(#clip2_1_1063)">
<g clip-path="url(#clip3_1_1063)">
<path d="M6.96204 0.835011C6.90337 0.717678 6.81904 0.624178 6.70904 0.554511C6.59904 0.484844 6.47804 0.450011 6.34604 0.450011C6.21404 0.450011 6.09121 0.484844 5.97754 0.554511C5.86387 0.624178 5.77771 0.717678 5.71904 0.835011L4.34404 3.68401L1.25304 4.13501C1.12837 4.14968 1.01471 4.19918 0.912041 4.28351C0.809374 4.36784 0.739708 4.47234 0.703041 4.59701C0.666374 4.72168 0.662708 4.84818 0.692041 4.97651C0.721374 5.10484 0.783708 5.21301 0.879041 5.30101L3.11204 7.52301L2.58404 10.647C2.56204 10.779 2.57671 10.9037 2.62804 11.021C2.67937 11.1383 2.75637 11.2373 2.85904 11.318C2.96171 11.3987 3.07904 11.4427 3.21104 11.45C3.34304 11.4573 3.46771 11.4317 3.58504 11.373L6.34604 9.89901L9.10704 11.373C9.22437 11.4317 9.34721 11.4573 9.47554 11.45C9.60387 11.4427 9.72304 11.4005 9.83304 11.3235C9.94304 11.2465 10.0219 11.1475 10.0695 11.0265C10.1172 10.9055 10.13 10.779 10.108 10.647L9.56904 7.52301L11.813 5.30101C11.9084 5.21301 11.9707 5.10484 12 4.97651C12.0294 4.84818 12.022 4.72168 11.978 4.59701C11.934 4.47234 11.8644 4.36784 11.769 4.28351C11.6737 4.19918 11.56 4.14968 11.428 4.13501L8.34804 3.68401L6.96204 0.835011Z" fill="#FACC15"/>
<path d="M20.337 0.835011C20.2784 0.717678 20.194 0.624178 20.084 0.554511C19.974 0.484844 19.853 0.450011 19.721 0.450011C19.589 0.450011 19.4662 0.484844 19.3525 0.554511C19.2389 0.624178 19.1527 0.717678 19.094 0.835011L17.719 3.68401L14.628 4.13501C14.5034 4.14968 14.3897 4.19918 14.287 4.28351C14.1844 4.36784 14.1147 4.47234 14.078 4.59701C14.0414 4.72168 14.0377 4.84818 14.067 4.97651C14.0964 5.10484 14.1587 5.21301 14.254 5.30101L16.487 7.52301L15.959 10.647C15.937 10.779 15.9517 10.9037 16.003 11.021C16.0544 11.1383 16.1314 11.2373 16.234 11.318C16.3367 11.3987 16.454 11.4427 16.586 11.45C16.718 11.4573 16.8427 11.4317 16.96 11.373L19.721 9.89901L22.482 11.373C22.5994 11.4317 22.7222 11.4573 22.8505 11.45C22.9789 11.4427 23.098 11.4005 23.208 11.3235C23.318 11.2465 23.3969 11.1475 23.4445 11.0265C23.4922 10.9055 23.505 10.779 23.483 10.647L22.944 7.52301L25.188 5.30101C25.2834 5.21301 25.3457 5.10484 25.375 4.97651C25.4044 4.84818 25.397 4.72168 25.353 4.59701C25.309 4.47234 25.2394 4.36784 25.144 4.28351C25.0487 4.19918 24.935 4.14968 24.803 4.13501L21.723 3.68401L20.337 0.835011Z" fill="#FACC15"/>
<path d="M33.712 0.835011C33.6534 0.717678 33.569 0.624178 33.459 0.554511C33.349 0.484844 33.228 0.450011 33.096 0.450011C32.964 0.450011 32.8412 0.484844 32.7275 0.554511C32.6139 0.624178 32.5277 0.717678 32.469 0.835011L31.094 3.68401L28.003 4.13501C27.8784 4.14968 27.7647 4.19918 27.662 4.28351C27.5594 4.36784 27.4897 4.47234 27.453 4.59701C27.4164 4.72168 27.4127 4.84818 27.442 4.97651C27.4714 5.10484 27.5337 5.21301 27.629 5.30101L29.862 7.52301L29.334 10.647C29.312 10.779 29.3267 10.9037 29.378 11.021C29.4294 11.1383 29.5064 11.2373 29.609 11.318C29.7117 11.3987 29.829 11.4427 29.961 11.45C30.093 11.4573 30.2177 11.4317 30.335 11.373L33.096 9.89901L35.857 11.373C35.9744 11.4317 36.0972 11.4573 36.2255 11.45C36.3539 11.4427 36.473 11.4005 36.583 11.3235C36.693 11.2465 36.7719 11.1475 36.8195 11.0265C36.8672 10.9055 36.88 10.779 36.858 10.647L36.319 7.52301L38.563 5.30101C38.6584 5.21301 38.7207 5.10484 38.75 4.97651C38.7794 4.84818 38.772 4.72168 38.728 4.59701C38.684 4.47234 38.6144 4.36784 38.519 4.28351C38.4237 4.19918 38.31 4.14968 38.178 4.13501L35.098 3.68401L33.712 0.835011Z" fill="#FACC15"/>
<path d="M47.087 0.835011C47.0284 0.717678 46.944 0.624178 46.834 0.554511C46.724 0.484844 46.603 0.450011 46.471 0.450011C46.339 0.450011 46.2162 0.484844 46.1025 0.554511C45.9889 0.624178 45.9027 0.717678 45.844 0.835011L44.469 3.68401L41.378 4.13501C41.2534 4.14968 41.1397 4.19918 41.037 4.28351C40.9344 4.36784 40.8647 4.47234 40.828 4.59701C40.7914 4.72168 40.7877 4.84818 40.817 4.97651C40.8464 5.10484 40.9087 5.21301 41.004 5.30101L43.237 7.52301L42.709 10.647C42.687 10.779 42.7017 10.9037 42.753 11.021C42.8044 11.1383 42.8814 11.2373 42.984 11.318C43.0867 11.3987 43.204 11.4427 43.336 11.45C43.468 11.4573 43.5927 11.4317 43.71 11.373L46.471 9.89901L49.232 11.373C49.3494 11.4317 49.4722 11.4573 49.6005 11.45C49.7289 11.4427 49.848 11.4005 49.958 11.3235C50.068 11.2465 50.1469 11.1475 50.1945 11.0265C50.2422 10.9055 50.255 10.779 50.233 10.647L49.694 7.52301L51.938 5.30101C52.0334 5.21301 52.0957 5.10484 52.125 4.97651C52.1544 4.84818 52.147 4.72168 52.103 4.59701C52.059 4.47234 51.9894 4.36784 51.894 4.28351C51.7987 4.19918 51.685 4.14968 51.553 4.13501L48.473 3.68401L47.087 0.835011Z" fill="#FACC15"/>
</g>
</g>
</g>
<defs>
<clipPath id="clip0_1_1063">
<rect width="66.88" height="11" fill="white" transform="translate(0.669983 0.450012)"/>
</clipPath>
<clipPath id="clip1_1_1063">
<rect width="66.88" height="11" fill="white" transform="matrix(1 0 0 -1 0.669983 11.45)"/>
</clipPath>
<clipPath id="clip2_1_1063">
<rect width="44.53" height="11" fill="white" transform="translate(0.669983 0.450012)"/>
</clipPath>
<clipPath id="clip3_1_1063">
<rect width="66.88" height="11" fill="white" transform="matrix(1 0 0 -1 0.669983 11.45)"/>
</clipPath>
</defs>
</svg>
