<svg width="68" height="12" viewBox="0 0 68 12" fill="none" xmlns="http://www.w3.org/2000/svg">
<g clip-path="url(#clip0_1_437)">
<g clip-path="url(#clip1_1_437)">
<path d="M6.792 1.07499C6.73333 0.957653 6.649 0.864153 6.539 0.794486C6.429 0.724819 6.308 0.689986 6.176 0.689986C6.044 0.689986 5.92116 0.724819 5.8075 0.794486C5.69383 0.864153 5.60766 0.957653 5.549 1.07499L4.174 3.92399L1.083 4.37499C0.95833 4.38965 0.844664 4.43915 0.741997 4.52349C0.63933 4.60782 0.569664 4.71232 0.532997 4.83699C0.49633 4.96165 0.492664 5.08815 0.521997 5.21649C0.55133 5.34482 0.613664 5.45299 0.708997 5.54099L2.942 7.76299L2.414 10.887C2.392 11.019 2.40666 11.1437 2.458 11.261C2.50933 11.3783 2.58633 11.4773 2.689 11.558C2.79166 11.6387 2.909 11.6827 3.041 11.69C3.173 11.6973 3.29766 11.6717 3.415 11.613L6.176 10.139L8.937 11.613C9.05433 11.6717 9.17716 11.6973 9.3055 11.69C9.43383 11.6827 9.553 11.6405 9.663 11.5635C9.773 11.4865 9.85183 11.3875 9.8995 11.2665C9.94716 11.1455 9.96 11.019 9.938 10.887L9.399 7.76299L11.643 5.54099C11.7383 5.45299 11.8007 5.34482 11.83 5.21649C11.8593 5.08815 11.852 4.96165 11.808 4.83699C11.764 4.71232 11.6943 4.60782 11.599 4.52349C11.5037 4.43915 11.39 4.38965 11.258 4.37499L8.178 3.92399L6.792 1.07499Z" fill="#D1D5DB"/>
<path d="M20.1671 1.07499C20.1085 0.957653 20.0241 0.864153 19.9141 0.794486C19.8041 0.724819 19.6831 0.689986 19.5511 0.689986C19.4191 0.689986 19.2963 0.724819 19.1826 0.794486C19.069 0.864153 18.9828 0.957653 18.9241 1.07499L17.5491 3.92399L14.4581 4.37499C14.3335 4.38965 14.2198 4.43915 14.1171 4.52349C14.0145 4.60782 13.9448 4.71232 13.9081 4.83699C13.8715 4.96165 13.8678 5.08815 13.8971 5.21649C13.9265 5.34482 13.9888 5.45299 14.0841 5.54099L16.3171 7.76299L15.7891 10.887C15.7671 11.019 15.7818 11.1437 15.8331 11.261C15.8845 11.3783 15.9615 11.4773 16.0641 11.558C16.1668 11.6387 16.2841 11.6827 16.4161 11.69C16.5481 11.6973 16.6728 11.6717 16.7901 11.613L19.5511 10.139L22.3121 11.613C22.4295 11.6717 22.5523 11.6973 22.6806 11.69C22.809 11.6827 22.9281 11.6405 23.0381 11.5635C23.1481 11.4865 23.227 11.3875 23.2746 11.2665C23.3223 11.1455 23.3351 11.019 23.3131 10.887L22.7741 7.76299L25.0181 5.54099C25.1135 5.45299 25.1758 5.34482 25.2051 5.21649C25.2345 5.08815 25.2271 4.96165 25.1831 4.83699C25.1391 4.71232 25.0695 4.60782 24.9741 4.52349C24.8788 4.43915 24.7651 4.38965 24.6331 4.37499L21.5531 3.92399L20.1671 1.07499Z" fill="#D1D5DB"/>
<path d="M33.5421 1.07499C33.4835 0.957653 33.3991 0.864153 33.2891 0.794486C33.1791 0.724819 33.0581 0.689986 32.9261 0.689986C32.7941 0.689986 32.6713 0.724819 32.5576 0.794486C32.444 0.864153 32.3578 0.957653 32.2991 1.07499L30.9241 3.92399L27.8331 4.37499C27.7085 4.38965 27.5948 4.43915 27.4921 4.52349C27.3895 4.60782 27.3198 4.71232 27.2831 4.83699C27.2465 4.96165 27.2428 5.08815 27.2721 5.21649C27.3015 5.34482 27.3638 5.45299 27.4591 5.54099L29.6921 7.76299L29.1641 10.887C29.1421 11.019 29.1568 11.1437 29.2081 11.261C29.2595 11.3783 29.3365 11.4773 29.4391 11.558C29.5418 11.6387 29.6591 11.6827 29.7911 11.69C29.9231 11.6973 30.0478 11.6717 30.1651 11.613L32.9261 10.139L35.6871 11.613C35.8045 11.6717 35.9273 11.6973 36.0556 11.69C36.184 11.6827 36.3031 11.6405 36.4131 11.5635C36.5231 11.4865 36.602 11.3875 36.6496 11.2665C36.6973 11.1455 36.7101 11.019 36.6881 10.887L36.1491 7.76299L38.3931 5.54099C38.4885 5.45299 38.5508 5.34482 38.5801 5.21649C38.6095 5.08815 38.6021 4.96165 38.5581 4.83699C38.5141 4.71232 38.4445 4.60782 38.3491 4.52349C38.2538 4.43915 38.1401 4.38965 38.0081 4.37499L34.9281 3.92399L33.5421 1.07499Z" fill="#D1D5DB"/>
<path d="M46.9171 1.07499C46.8585 0.957653 46.7741 0.864153 46.6641 0.794486C46.5541 0.724819 46.4331 0.689986 46.3011 0.689986C46.1691 0.689986 46.0463 0.724819 45.9326 0.794486C45.819 0.864153 45.7328 0.957653 45.6741 1.07499L44.2991 3.92399L41.2081 4.37499C41.0835 4.38965 40.9698 4.43915 40.8671 4.52349C40.7645 4.60782 40.6948 4.71232 40.6581 4.83699C40.6215 4.96165 40.6178 5.08815 40.6471 5.21649C40.6765 5.34482 40.7388 5.45299 40.8341 5.54099L43.0671 7.76299L42.5391 10.887C42.5171 11.019 42.5318 11.1437 42.5831 11.261C42.6345 11.3783 42.7115 11.4773 42.8141 11.558C42.9168 11.6387 43.0341 11.6827 43.1661 11.69C43.2981 11.6973 43.4228 11.6717 43.5401 11.613L46.3011 10.139L49.0621 11.613C49.1795 11.6717 49.3023 11.6973 49.4306 11.69C49.559 11.6827 49.6781 11.6405 49.7881 11.5635C49.8981 11.4865 49.977 11.3875 50.0246 11.2665C50.0723 11.1455 50.0851 11.019 50.0631 10.887L49.5241 7.76299L51.7681 5.54099C51.8635 5.45299 51.9258 5.34482 51.9551 5.21649C51.9845 5.08815 51.9771 4.96165 51.9331 4.83699C51.8891 4.71232 51.8195 4.60782 51.7241 4.52349C51.6288 4.43915 51.5151 4.38965 51.3831 4.37499L48.3031 3.92399L46.9171 1.07499Z" fill="#D1D5DB"/>
<path d="M60.2921 1.07499C60.2335 0.957653 60.1491 0.864153 60.0391 0.794486C59.9291 0.724819 59.8081 0.689986 59.6761 0.689986C59.5441 0.689986 59.4213 0.724819 59.3076 0.794486C59.194 0.864153 59.1078 0.957653 59.0491 1.07499L57.6741 3.92399L54.5831 4.37499C54.4585 4.38965 54.3448 4.43915 54.2421 4.52349C54.1395 4.60782 54.0698 4.71232 54.0331 4.83699C53.9965 4.96165 53.9928 5.08815 54.0221 5.21649C54.0515 5.34482 54.1138 5.45299 54.2091 5.54099L56.4421 7.76299L55.9141 10.887C55.8921 11.019 55.9068 11.1437 55.9581 11.261C56.0095 11.3783 56.0865 11.4773 56.1891 11.558C56.2918 11.6387 56.4091 11.6827 56.5411 11.69C56.6731 11.6973 56.7978 11.6717 56.9151 11.613L59.6761 10.139L62.4371 11.613C62.5545 11.6717 62.6773 11.6973 62.8056 11.69C62.934 11.6827 63.0531 11.6405 63.1631 11.5635C63.2731 11.4865 63.352 11.3875 63.3996 11.2665C63.4473 11.1455 63.4601 11.019 63.4381 10.887L62.8991 7.76299L65.1431 5.54099C65.2385 5.45299 65.3008 5.34482 65.3301 5.21649C65.3595 5.08815 65.3521 4.96165 65.3081 4.83699C65.2641 4.71232 65.1945 4.60782 65.0991 4.52349C65.0038 4.43915 64.8901 4.38965 64.7581 4.37499L61.6781 3.92399L60.2921 1.07499Z" fill="#D1D5DB"/>
</g>
<g clip-path="url(#clip2_1_437)">
<g clip-path="url(#clip3_1_437)">
<path d="M6.792 1.07499C6.73333 0.957653 6.649 0.864153 6.539 0.794486C6.429 0.724819 6.308 0.689986 6.176 0.689986C6.044 0.689986 5.92116 0.724819 5.8075 0.794486C5.69383 0.864153 5.60766 0.957653 5.549 1.07499L4.174 3.92399L1.083 4.37499C0.95833 4.38965 0.844664 4.43915 0.741997 4.52349C0.63933 4.60782 0.569664 4.71232 0.532997 4.83699C0.49633 4.96165 0.492664 5.08815 0.521997 5.21649C0.55133 5.34482 0.613664 5.45299 0.708997 5.54099L2.942 7.76299L2.414 10.887C2.392 11.019 2.40666 11.1437 2.458 11.261C2.50933 11.3783 2.58633 11.4773 2.689 11.558C2.79166 11.6387 2.909 11.6827 3.041 11.69C3.173 11.6973 3.29766 11.6717 3.415 11.613L6.176 10.139L8.937 11.613C9.05433 11.6717 9.17716 11.6973 9.3055 11.69C9.43383 11.6827 9.553 11.6405 9.663 11.5635C9.773 11.4865 9.85183 11.3875 9.8995 11.2665C9.94716 11.1455 9.96 11.019 9.938 10.887L9.399 7.76299L11.643 5.54099C11.7383 5.45299 11.8007 5.34482 11.83 5.21649C11.8593 5.08815 11.852 4.96165 11.808 4.83699C11.764 4.71232 11.6943 4.60782 11.599 4.52349C11.5037 4.43915 11.39 4.38965 11.258 4.37499L8.178 3.92399L6.792 1.07499Z" fill="#FACC15"/>
<path d="M20.1671 1.07499C20.1085 0.957653 20.0241 0.864153 19.9141 0.794486C19.8041 0.724819 19.6831 0.689986 19.5511 0.689986C19.4191 0.689986 19.2963 0.724819 19.1826 0.794486C19.069 0.864153 18.9828 0.957653 18.9241 1.07499L17.5491 3.92399L14.4581 4.37499C14.3335 4.38965 14.2198 4.43915 14.1171 4.52349C14.0145 4.60782 13.9448 4.71232 13.9081 4.83699C13.8715 4.96165 13.8678 5.08815 13.8971 5.21649C13.9265 5.34482 13.9888 5.45299 14.0841 5.54099L16.3171 7.76299L15.7891 10.887C15.7671 11.019 15.7818 11.1437 15.8331 11.261C15.8845 11.3783 15.9615 11.4773 16.0641 11.558C16.1668 11.6387 16.2841 11.6827 16.4161 11.69C16.5481 11.6973 16.6728 11.6717 16.7901 11.613L19.5511 10.139L22.3121 11.613C22.4295 11.6717 22.5523 11.6973 22.6806 11.69C22.809 11.6827 22.9281 11.6405 23.0381 11.5635C23.1481 11.4865 23.227 11.3875 23.2746 11.2665C23.3223 11.1455 23.3351 11.019 23.3131 10.887L22.7741 7.76299L25.0181 5.54099C25.1135 5.45299 25.1758 5.34482 25.2051 5.21649C25.2345 5.08815 25.2271 4.96165 25.1831 4.83699C25.1391 4.71232 25.0695 4.60782 24.9741 4.52349C24.8788 4.43915 24.7651 4.38965 24.6331 4.37499L21.5531 3.92399L20.1671 1.07499Z" fill="#FACC15"/>
<path d="M33.5421 1.07499C33.4835 0.957653 33.3991 0.864153 33.2891 0.794486C33.1791 0.724819 33.0581 0.689986 32.9261 0.689986C32.7941 0.689986 32.6713 0.724819 32.5576 0.794486C32.444 0.864153 32.3578 0.957653 32.2991 1.07499L30.9241 3.92399L27.8331 4.37499C27.7085 4.38965 27.5948 4.43915 27.4921 4.52349C27.3895 4.60782 27.3198 4.71232 27.2831 4.83699C27.2465 4.96165 27.2428 5.08815 27.2721 5.21649C27.3015 5.34482 27.3638 5.45299 27.4591 5.54099L29.6921 7.76299L29.1641 10.887C29.1421 11.019 29.1568 11.1437 29.2081 11.261C29.2595 11.3783 29.3365 11.4773 29.4391 11.558C29.5418 11.6387 29.6591 11.6827 29.7911 11.69C29.9231 11.6973 30.0478 11.6717 30.1651 11.613L32.9261 10.139L35.6871 11.613C35.8045 11.6717 35.9273 11.6973 36.0556 11.69C36.184 11.6827 36.3031 11.6405 36.4131 11.5635C36.5231 11.4865 36.602 11.3875 36.6496 11.2665C36.6973 11.1455 36.7101 11.019 36.6881 10.887L36.1491 7.76299L38.3931 5.54099C38.4885 5.45299 38.5508 5.34482 38.5801 5.21649C38.6095 5.08815 38.6021 4.96165 38.5581 4.83699C38.5141 4.71232 38.4445 4.60782 38.3491 4.52349C38.2538 4.43915 38.1401 4.38965 38.0081 4.37499L34.9281 3.92399L33.5421 1.07499Z" fill="#FACC15"/>
<path d="M46.9171 1.07499C46.8585 0.957653 46.7741 0.864153 46.6641 0.794486C46.5541 0.724819 46.4331 0.689986 46.3011 0.689986C46.1691 0.689986 46.0463 0.724819 45.9326 0.794486C45.819 0.864153 45.7328 0.957653 45.6741 1.07499L44.2991 3.92399L41.2081 4.37499C41.0835 4.38965 40.9698 4.43915 40.8671 4.52349C40.7645 4.60782 40.6948 4.71232 40.6581 4.83699C40.6215 4.96165 40.6178 5.08815 40.6471 5.21649C40.6765 5.34482 40.7388 5.45299 40.8341 5.54099L43.0671 7.76299L42.5391 10.887C42.5171 11.019 42.5318 11.1437 42.5831 11.261C42.6345 11.3783 42.7115 11.4773 42.8141 11.558C42.9168 11.6387 43.0341 11.6827 43.1661 11.69C43.2981 11.6973 43.4228 11.6717 43.5401 11.613L46.3011 10.139L49.0621 11.613C49.1795 11.6717 49.3023 11.6973 49.4306 11.69C49.559 11.6827 49.6781 11.6405 49.7881 11.5635C49.8981 11.4865 49.977 11.3875 50.0246 11.2665C50.0723 11.1455 50.0851 11.019 50.0631 10.887L49.5241 7.76299L51.7681 5.54099C51.8635 5.45299 51.9258 5.34482 51.9551 5.21649C51.9845 5.08815 51.9771 4.96165 51.9331 4.83699C51.8891 4.71232 51.8195 4.60782 51.7241 4.52349C51.6288 4.43915 51.5151 4.38965 51.3831 4.37499L48.3031 3.92399L46.9171 1.07499Z" fill="#FACC15"/>
</g>
</g>
</g>
<defs>
<clipPath id="clip0_1_437">
<rect width="66.88" height="11" fill="white" transform="translate(0.5 0.689987)"/>
</clipPath>
<clipPath id="clip1_1_437">
<rect width="66.88" height="11" fill="white" transform="matrix(1 0 0 -1 0.5 11.69)"/>
</clipPath>
<clipPath id="clip2_1_437">
<rect width="40.13" height="11" fill="white" transform="translate(0.5 0.689987)"/>
</clipPath>
<clipPath id="clip3_1_437">
<rect width="66.88" height="11" fill="white" transform="matrix(1 0 0 -1 0.5 11.69)"/>
</clipPath>
</defs>
</svg>
