<svg width="33" height="33" viewBox="0 0 33 33" fill="none" xmlns="http://www.w3.org/2000/svg">
<rect x="0.690063" y="0.390015" width="32" height="32" rx="16" fill="white"/>
<g clip-path="url(#clip0_1_1127)">
<path d="M18.6711 8.14001C17.9084 8.14001 17.1788 8.30502 16.4821 8.63502C15.7854 8.96501 15.2024 9.40868 14.7331 9.96601C14.2784 9.37935 13.7064 8.92835 13.0171 8.61301C12.3278 8.29768 11.5871 8.14001 10.7951 8.14001C9.90043 8.14001 9.06443 8.36001 8.28709 8.80001C7.53909 9.22535 6.94509 9.80468 6.50509 10.538C6.06509 11.2713 5.84509 12.0633 5.84509 12.914C5.84509 14.5127 6.27776 16.0893 7.14309 17.644C7.83243 18.8907 8.79309 20.1007 10.0251 21.274C10.9051 22.1247 11.8878 22.9093 12.9731 23.628C13.6478 24.0973 14.1464 24.4053 14.4691 24.552C14.5278 24.6107 14.6158 24.64 14.7331 24.64C14.8504 24.64 14.9751 24.6107 15.1071 24.552C15.4591 24.376 15.9578 24.068 16.6031 23.628C17.6738 22.9093 18.6564 22.1247 19.5511 21.274C20.7684 20.1007 21.7218 18.8907 22.4111 17.644C23.2764 16.0893 23.7091 14.5127 23.7091 12.914C23.7091 12.0633 23.4818 11.2713 23.0271 10.538C22.5724 9.80468 21.9564 9.22168 21.1791 8.78901C20.4018 8.35635 19.5658 8.14001 18.6711 8.14001ZM14.7331 23.166C13.7944 22.594 12.9291 21.9853 12.1371 21.34C10.7438 20.2107 9.64376 19.0447 8.83709 17.842C7.75176 16.2433 7.20909 14.63 7.20909 13.002C7.20909 12.3713 7.37409 11.7883 7.70409 11.253C8.03409 10.7177 8.47409 10.2923 9.02409 9.97701C9.57409 9.66168 10.1644 9.50401 10.7951 9.50401C11.5284 9.50401 12.1921 9.69468 12.7861 10.076C13.3801 10.4573 13.8164 10.9707 14.0951 11.616C14.1538 11.7627 14.2674 11.8653 14.4361 11.924C14.6048 11.9827 14.7808 11.9827 14.9641 11.924C15.1474 11.8653 15.2831 11.7627 15.3711 11.616C15.6498 10.9707 16.0898 10.4573 16.6911 10.076C17.2924 9.69468 17.9524 9.50401 18.6711 9.50401C19.3311 9.50401 19.9361 9.66168 20.4861 9.97701C21.0361 10.2923 21.4688 10.7177 21.7841 11.253C22.0994 11.7883 22.2571 12.3713 22.2571 13.002C22.2571 14.6007 21.7144 16.1993 20.6291 17.798C19.8078 19.0007 18.7078 20.174 17.3291 21.318C16.5078 21.9927 15.6424 22.6087 14.7331 23.166Z" fill="#030712"/>
</g>
<defs>
<clipPath id="clip0_1_1127">
<rect width="21.69" height="22" fill="white" transform="matrix(1 0 0 -1 5.84009 27.39)"/>
</clipPath>
</defs>
</svg>
