<svg width="37" height="35" viewBox="0 0 37 35" fill="none" xmlns="http://www.w3.org/2000/svg">
<rect x="0.5" y="0.629974" width="36" height="34" rx="8" fill="#16A34A"/>
<g clip-path="url(#clip0_1_106)">
<path d="M25.44 10.13H9.2C9 10.1566 8.83333 10.25 8.7 10.41C8.56667 10.57 8.5 10.75 8.5 10.95C8.5 11.15 8.56667 11.3333 8.7 11.5C8.83333 11.6666 9 11.7633 9.2 11.79H12.42L11.84 19.17V19.31C11.84 19.7633 12.0033 20.1533 12.33 20.48C12.6567 20.8066 13.0467 20.97 13.5 20.97H23.72C24.12 20.97 24.47 20.8466 24.77 20.6C25.07 20.3533 25.26 20.05 25.34 19.69L27.06 12.17C27.0867 12.01 27.1 11.8833 27.1 11.79C27.1 11.3233 26.94 10.93 26.62 10.61C26.3 10.29 25.9067 10.13 25.44 10.13ZM23.72 19.29H13.5L14.08 11.79H25.44L23.72 19.29ZM15.04 25.13C15.5067 25.13 15.9033 24.9666 16.23 24.64C16.5567 24.3133 16.72 23.9166 16.72 23.45C16.72 22.9833 16.5567 22.59 16.23 22.27C15.9033 21.95 15.5067 21.79 15.04 21.79C14.5867 21.79 14.1967 21.95 13.87 22.27C13.5433 22.59 13.38 22.9833 13.38 23.45C13.38 23.9166 13.5433 24.3133 13.87 24.64C14.1967 24.9666 14.5867 25.13 15.04 25.13ZM22.54 25.13C23.0067 25.13 23.4033 24.9666 23.73 24.64C24.0567 24.3133 24.22 23.9166 24.22 23.45C24.22 22.9833 24.0567 22.59 23.73 22.27C23.4033 21.95 23.0067 21.79 22.54 21.79C22.0867 21.79 21.6967 21.95 21.37 22.27C21.0433 22.59 20.88 22.9833 20.88 23.45C20.88 23.9166 21.0433 24.3133 21.37 24.64C21.6967 24.9666 22.0867 25.13 22.54 25.13Z" fill="white"/>
</g>
<defs>
<clipPath id="clip0_1_106">
<rect width="20" height="20" fill="white" transform="matrix(1 0 0 -1 8.5 27.63)"/>
</clipPath>
</defs>
</svg>
