<svg width="36" height="35" viewBox="0 0 36 35" fill="none" xmlns="http://www.w3.org/2000/svg">
<rect y="0.840027" width="36" height="34" rx="8" fill="#16A34A"/>
<path d="M24.94 10.34H8.7C8.5 10.3667 8.33333 10.46 8.2 10.62C8.06667 10.78 8 10.96 8 11.16C8 11.36 8.06667 11.5434 8.2 11.71C8.33333 11.8767 8.5 11.9734 8.7 12H11.92L11.34 19.38V19.52C11.34 19.9734 11.5033 20.3634 11.83 20.69C12.1567 21.0167 12.5467 21.18 13 21.18H23.22C23.62 21.18 23.97 21.0567 24.27 20.81C24.57 20.5634 24.76 20.26 24.84 19.9L26.56 12.38C26.5867 12.22 26.6 12.0934 26.6 12C26.6 11.5334 26.44 11.14 26.12 10.82C25.8 10.5 25.4067 10.34 24.94 10.34ZM23.22 19.5H13L13.58 12H24.94L23.22 19.5ZM14.54 25.34C15.0067 25.34 15.4033 25.1767 15.73 24.85C16.0567 24.5234 16.22 24.1267 16.22 23.66C16.22 23.1934 16.0567 22.8 15.73 22.48C15.4033 22.16 15.0067 22 14.54 22C14.0867 22 13.6967 22.16 13.37 22.48C13.0433 22.8 12.88 23.1934 12.88 23.66C12.88 24.1267 13.0433 24.5234 13.37 24.85C13.6967 25.1767 14.0867 25.34 14.54 25.34ZM22.04 25.34C22.5067 25.34 22.9033 25.1767 23.23 24.85C23.5567 24.5234 23.72 24.1267 23.72 23.66C23.72 23.1934 23.5567 22.8 23.23 22.48C22.9033 22.16 22.5067 22 22.04 22C21.5867 22 21.1967 22.16 20.87 22.48C20.5433 22.8 20.38 23.1934 20.38 23.66C20.38 24.1267 20.5433 24.5234 20.87 24.85C21.1967 25.1767 21.5867 25.34 22.04 25.34Z" fill="white"/>
</svg>
