<svg width="36" height="35" viewBox="0 0 36 35" fill="none" xmlns="http://www.w3.org/2000/svg">
<rect y="0.799988" width="36" height="34" rx="8" fill="#16A34A"/>
<path d="M24.94 10.3H8.7C8.5 10.3267 8.33333 10.42 8.2 10.58C8.06667 10.74 8 10.92 8 11.12C8 11.32 8.06667 11.5033 8.2 11.67C8.33333 11.8367 8.5 11.9333 8.7 11.96H11.92L11.34 19.34V19.48C11.34 19.9333 11.5033 20.3233 11.83 20.65C12.1567 20.9767 12.5467 21.14 13 21.14H23.22C23.62 21.14 23.97 21.0167 24.27 20.77C24.57 20.5233 24.76 20.22 24.84 19.86L26.56 12.34C26.5867 12.18 26.6 12.0533 26.6 11.96C26.6 11.4933 26.44 11.1 26.12 10.78C25.8 10.46 25.4067 10.3 24.94 10.3ZM23.22 19.46H13L13.58 11.96H24.94L23.22 19.46ZM14.54 25.3C15.0067 25.3 15.4033 25.1367 15.73 24.81C16.0567 24.4833 16.22 24.0867 16.22 23.62C16.22 23.1533 16.0567 22.76 15.73 22.44C15.4033 22.12 15.0067 21.96 14.54 21.96C14.0867 21.96 13.6967 22.12 13.37 22.44C13.0433 22.76 12.88 23.1533 12.88 23.62C12.88 24.0867 13.0433 24.4833 13.37 24.81C13.6967 25.1367 14.0867 25.3 14.54 25.3ZM22.04 25.3C22.5067 25.3 22.9033 25.1367 23.23 24.81C23.5567 24.4833 23.72 24.0867 23.72 23.62C23.72 23.1533 23.5567 22.76 23.23 22.44C22.9033 22.12 22.5067 21.96 22.04 21.96C21.5867 21.96 21.1967 22.12 20.87 22.44C20.5433 22.76 20.38 23.1533 20.38 23.62C20.38 24.0867 20.5433 24.4833 20.87 24.81C21.1967 25.1367 21.5867 25.3 22.04 25.3Z" fill="white"/>
</svg>
