<svg width="36" height="35" viewBox="0 0 36 35" fill="none" xmlns="http://www.w3.org/2000/svg">
<rect y="0.190002" width="36" height="34" rx="8" fill="#16A34A"/>
<path d="M24.94 9.69H8.7C8.5 9.71667 8.33333 9.81 8.2 9.97C8.06667 10.13 8 10.31 8 10.51C8 10.71 8.06667 10.8933 8.2 11.06C8.33333 11.2267 8.5 11.3233 8.7 11.35H11.92L11.34 18.73V18.87C11.34 19.3233 11.5033 19.7133 11.83 20.04C12.1567 20.3667 12.5467 20.53 13 20.53H23.22C23.62 20.53 23.97 20.4067 24.27 20.16C24.57 19.9133 24.76 19.61 24.84 19.25L26.56 11.73C26.5867 11.57 26.6 11.4433 26.6 11.35C26.6 10.8833 26.44 10.49 26.12 10.17C25.8 9.85 25.4067 9.69 24.94 9.69ZM23.22 18.85H13L13.58 11.35H24.94L23.22 18.85ZM14.54 24.69C15.0067 24.69 15.4033 24.5267 15.73 24.2C16.0567 23.8733 16.22 23.4767 16.22 23.01C16.22 22.5433 16.0567 22.15 15.73 21.83C15.4033 21.51 15.0067 21.35 14.54 21.35C14.0867 21.35 13.6967 21.51 13.37 21.83C13.0433 22.15 12.88 22.5433 12.88 23.01C12.88 23.4767 13.0433 23.8733 13.37 24.2C13.6967 24.5267 14.0867 24.69 14.54 24.69ZM22.04 24.69C22.5067 24.69 22.9033 24.5267 23.23 24.2C23.5567 23.8733 23.72 23.4767 23.72 23.01C23.72 22.5433 23.5567 22.15 23.23 21.83C22.9033 21.51 22.5067 21.35 22.04 21.35C21.5867 21.35 21.1967 21.51 20.87 21.83C20.5433 22.15 20.38 22.5433 20.38 23.01C20.38 23.4767 20.5433 23.8733 20.87 24.2C21.1967 24.5267 21.5867 24.69 22.04 24.69Z" fill="white"/>
</svg>
