<svg width="33" height="33" viewBox="0 0 33 33" fill="none" xmlns="http://www.w3.org/2000/svg">
<rect x="0.0199585" y="0.390015" width="32" height="32" rx="16" fill="white"/>
<g clip-path="url(#clip0_1_1092)">
<path d="M18.001 8.14001C17.2383 8.14001 16.5087 8.30502 15.812 8.63502C15.1153 8.96501 14.5323 9.40868 14.063 9.96601C13.6083 9.37935 13.0363 8.92835 12.347 8.61301C11.6577 8.29768 10.917 8.14001 10.125 8.14001C9.23032 8.14001 8.39432 8.36001 7.61699 8.80001C6.86899 9.22535 6.27499 9.80468 5.83499 10.538C5.39499 11.2713 5.17499 12.0633 5.17499 12.914C5.17499 14.5127 5.60765 16.0893 6.47299 17.644C7.16232 18.8907 8.12299 20.1007 9.35499 21.274C10.235 22.1247 11.2177 22.9093 12.303 23.628C12.9777 24.0973 13.4763 24.4053 13.799 24.552C13.8577 24.6107 13.9457 24.64 14.063 24.64C14.1803 24.64 14.305 24.6107 14.437 24.552C14.789 24.376 15.2877 24.068 15.933 23.628C17.0037 22.9093 17.9863 22.1247 18.881 21.274C20.0983 20.1007 21.0517 18.8907 21.741 17.644C22.6063 16.0893 23.039 14.5127 23.039 12.914C23.039 12.0633 22.8117 11.2713 22.357 10.538C21.9023 9.80468 21.2863 9.22168 20.509 8.78901C19.7317 8.35635 18.8957 8.14001 18.001 8.14001ZM14.063 23.166C13.1243 22.594 12.259 21.9853 11.467 21.34C10.0737 20.2107 8.97365 19.0447 8.16699 17.842C7.08165 16.2433 6.53899 14.63 6.53899 13.002C6.53899 12.3713 6.70399 11.7883 7.03399 11.253C7.36399 10.7177 7.80399 10.2923 8.35399 9.97701C8.90399 9.66168 9.49432 9.50401 10.125 9.50401C10.8583 9.50401 11.522 9.69468 12.116 10.076C12.71 10.4573 13.1463 10.9707 13.425 11.616C13.4837 11.7627 13.5973 11.8653 13.766 11.924C13.9347 11.9827 14.1107 11.9827 14.294 11.924C14.4773 11.8653 14.613 11.7627 14.701 11.616C14.9797 10.9707 15.4197 10.4573 16.021 10.076C16.6223 9.69468 17.2823 9.50401 18.001 9.50401C18.661 9.50401 19.266 9.66168 19.816 9.97701C20.366 10.2923 20.7987 10.7177 21.114 11.253C21.4293 11.7883 21.587 12.3713 21.587 13.002C21.587 14.6007 21.0443 16.1993 19.959 17.798C19.1377 19.0007 18.0377 20.174 16.659 21.318C15.8377 21.9927 14.9723 22.6087 14.063 23.166Z" fill="#030712"/>
</g>
<defs>
<clipPath id="clip0_1_1092">
<rect width="21.69" height="22" fill="white" transform="matrix(1 0 0 -1 5.16998 27.39)"/>
</clipPath>
</defs>
</svg>
