<svg width="12" height="13" viewBox="0 0 12 13" fill="none" xmlns="http://www.w3.org/2000/svg">
<g clip-path="url(#clip0_1_17)">
<path d="M3.86123 6.13798L0.861232 3.13798C0.781232 3.06598 0.689232 3.02998 0.585232 3.02998C0.481232 3.02998 0.389232 3.06598 0.309232 3.13798C0.229232 3.20998 0.191232 3.29998 0.195232 3.40798C0.199232 3.51598 0.237232 3.60998 0.309232 3.68998L3.05723 6.43798L0.309232 9.18598C0.237232 9.26598 0.201232 9.35998 0.201232 9.46798C0.201232 9.57598 0.237232 9.66598 0.309232 9.73798C0.333232 9.76198 0.369232 9.78398 0.417232 9.80398C0.465232 9.82398 0.513232 9.83398 0.561232 9.83398C0.609232 9.83398 0.657232 9.82398 0.705232 9.80398C0.753232 9.78398 0.789232 9.76198 0.813232 9.73798L3.81323 6.73798C3.99723 6.49798 4.01323 6.29798 3.86123 6.13798Z" fill="#9CA3AF"/>
</g>
<defs>
<clipPath id="clip0_1_17">
<rect width="11.69" height="12" fill="white" transform="matrix(1 0 0 -1 0.189941 12.39)"/>
</clipPath>
</defs>
</svg>
