<svg width="20" height="21" viewBox="0 0 20 21" fill="none" xmlns="http://www.w3.org/2000/svg">
<path d="M15.82 3.37015H2.49997C2.08664 3.37015 1.69997 3.47015 1.33997 3.67015C0.979973 3.87015 0.693306 4.14349 0.479973 4.49015C0.26664 4.83682 0.159973 5.21682 0.159973 5.63015V15.6302C0.159973 16.0435 0.263306 16.4302 0.469973 16.7902C0.67664 17.1502 0.95664 17.4368 1.30997 17.6502C1.66331 17.8635 2.05997 17.9702 2.49997 17.9702H15.82C16.2333 17.9702 16.62 17.8668 16.98 17.6602C17.34 17.4535 17.6266 17.1735 17.84 16.8202C18.0533 16.4668 18.16 16.0702 18.16 15.6302V5.63015C18.16 5.21682 18.0533 4.83682 17.84 4.49015C17.6266 4.14349 17.34 3.87015 16.98 3.67015C16.62 3.47015 16.2333 3.37015 15.82 3.37015ZM2.49997 4.63015H15.82C16.1133 4.63015 16.3533 4.73015 16.54 4.93015C16.7266 5.13015 16.82 5.36349 16.82 5.63015V6.13015L9.65997 10.7102C9.48664 10.7902 9.30664 10.8302 9.11997 10.8302C8.93331 10.8302 8.75331 10.7902 8.57997 10.7102L1.49997 6.13015V5.63015C1.49997 5.33682 1.59331 5.09682 1.77997 4.91015C1.96664 4.72349 2.20664 4.63015 2.49997 4.63015ZM15.82 16.7102H2.49997C2.21997 16.7102 1.98331 16.6068 1.78997 16.4002C1.59664 16.1935 1.49997 15.9635 1.49997 15.7102V7.63015L7.99997 11.7902C8.27997 12.0168 8.66664 12.1302 9.15997 12.1302C9.65331 12.1302 10.04 12.0168 10.32 11.7902L16.82 7.63015V15.6302C16.82 15.9235 16.7266 16.1768 16.54 16.3902C16.3533 16.6035 16.1133 16.7102 15.82 16.7102Z" fill="#9CA3AF"/>
</svg>
