<svg width="33" height="33" viewBox="0 0 33 33" fill="none" xmlns="http://www.w3.org/2000/svg">
<rect x="0.5" y="0.22998" width="32" height="32" rx="16" fill="white"/>
<g clip-path="url(#clip0_1_50)">
<path d="M18.491 7.97998C17.7284 7.97998 16.9987 8.14498 16.302 8.47498C15.6054 8.80498 15.0224 9.24865 14.553 9.80598C14.0984 9.21931 13.5264 8.76831 12.837 8.45298C12.1477 8.13765 11.407 7.97998 10.615 7.97998C9.72037 7.97998 8.88437 8.19998 8.10704 8.63998C7.35904 9.06531 6.76504 9.64465 6.32504 10.378C5.88504 11.1113 5.66504 11.9033 5.66504 12.754C5.66504 14.3526 6.09771 15.9293 6.96304 17.484C7.65237 18.7306 8.61304 19.9406 9.84504 21.114C10.725 21.9646 11.7077 22.7493 12.793 23.468C13.4677 23.9373 13.9664 24.2453 14.289 24.392C14.3477 24.4506 14.4357 24.48 14.553 24.48C14.6704 24.48 14.795 24.4506 14.927 24.392C15.279 24.216 15.7777 23.908 16.423 23.468C17.4937 22.7493 18.4764 21.9646 19.371 21.114C20.5884 19.9406 21.5417 18.7306 22.231 17.484C23.0964 15.9293 23.529 14.3526 23.529 12.754C23.529 11.9033 23.3017 11.1113 22.847 10.378C22.3924 9.64465 21.7764 9.06165 20.999 8.62898C20.2217 8.19631 19.3857 7.97998 18.491 7.97998ZM14.553 23.006C13.6144 22.434 12.749 21.8253 11.957 21.18C10.5637 20.0506 9.46371 18.8846 8.65704 17.682C7.57171 16.0833 7.02904 14.47 7.02904 12.842C7.02904 12.2113 7.19404 11.6283 7.52404 11.093C7.85404 10.5576 8.29404 10.1323 8.84404 9.81698C9.39404 9.50165 9.98437 9.34398 10.615 9.34398C11.3484 9.34398 12.012 9.53465 12.606 9.91598C13.2 10.2973 13.6364 10.8106 13.915 11.456C13.9737 11.6026 14.0874 11.7053 14.256 11.764C14.4247 11.8226 14.6007 11.8226 14.784 11.764C14.9674 11.7053 15.103 11.6026 15.191 11.456C15.4697 10.8106 15.9097 10.2973 16.511 9.91598C17.1124 9.53465 17.7724 9.34398 18.491 9.34398C19.151 9.34398 19.756 9.50165 20.306 9.81698C20.856 10.1323 21.2887 10.5576 21.604 11.093C21.9194 11.6283 22.077 12.2113 22.077 12.842C22.077 14.4406 21.5344 16.0393 20.449 17.638C19.6277 18.8406 18.5277 20.014 17.149 21.158C16.3277 21.8326 15.4624 22.4486 14.553 23.006Z" fill="#030712"/>
</g>
<defs>
<clipPath id="clip0_1_50">
<rect width="21.69" height="22" fill="white" transform="matrix(1 0 0 -1 5.66003 27.23)"/>
</clipPath>
</defs>
</svg>
