<svg width="12" height="13" viewBox="0 0 12 13" fill="none" xmlns="http://www.w3.org/2000/svg">
<g clip-path="url(#clip0_1_905)">
<path d="M3.72128 6.13798L0.721278 3.13798C0.641278 3.06598 0.549278 3.02998 0.445278 3.02998C0.341278 3.02998 0.249278 3.06598 0.169278 3.13798C0.0892784 3.20998 0.0512784 3.29998 0.0552784 3.40798C0.0592784 3.51598 0.0972784 3.60998 0.169278 3.68998L2.91728 6.43798L0.169278 9.18598C0.0972784 9.26598 0.0612784 9.35998 0.0612784 9.46798C0.0612784 9.57598 0.0972784 9.66598 0.169278 9.73798C0.193278 9.76198 0.229278 9.78398 0.277278 9.80398C0.325278 9.82398 0.373278 9.83398 0.421278 9.83398C0.469278 9.83398 0.517278 9.82398 0.565278 9.80398C0.613278 9.78398 0.649278 9.76198 0.673278 9.73798L3.67328 6.73798C3.85728 6.49798 3.87328 6.29798 3.72128 6.13798Z" fill="#9CA3AF"/>
</g>
<defs>
<clipPath id="clip0_1_905">
<rect width="11.69" height="12" fill="white" transform="matrix(1 0 0 -1 0.0499878 12.39)"/>
</clipPath>
</defs>
</svg>
