<svg width="13" height="13" viewBox="0 0 13 13" fill="none" xmlns="http://www.w3.org/2000/svg">
<g clip-path="url(#clip0_1_902)">
<path d="M4.14129 6.13798L1.14129 3.13798C1.06129 3.06598 0.969292 3.02998 0.865292 3.02998C0.761292 3.02998 0.669292 3.06598 0.589292 3.13798C0.509292 3.20998 0.471292 3.29998 0.475292 3.40798C0.479292 3.51598 0.517292 3.60998 0.589292 3.68998L3.33729 6.43798L0.589292 9.18598C0.517292 9.26598 0.481292 9.35998 0.481292 9.46798C0.481292 9.57598 0.517292 9.66598 0.589292 9.73798C0.613292 9.76198 0.649292 9.78398 0.697292 9.80398C0.745292 9.82398 0.793292 9.83398 0.841292 9.83398C0.889292 9.83398 0.937292 9.82398 0.985292 9.80398C1.03329 9.78398 1.06929 9.76198 1.09329 9.73798L4.09329 6.73798C4.27729 6.49798 4.29329 6.29798 4.14129 6.13798Z" fill="#9CA3AF"/>
</g>
<defs>
<clipPath id="clip0_1_902">
<rect width="11.69" height="12" fill="white" transform="matrix(1 0 0 -1 0.470001 12.39)"/>
</clipPath>
</defs>
</svg>
