<svg width="36" height="37" viewBox="0 0 36 37" fill="none" xmlns="http://www.w3.org/2000/svg">
<rect x="0.5" y="1.08002" width="35" height="35" rx="5.5" stroke="#E5E7EB"/>
<g clip-path="url(#clip0_1_1001)">
<path d="M15.7754 26.6839C15.9652 26.7569 16.1404 26.7934 16.3011 26.7934C16.4617 26.7934 16.6442 26.7496 16.8486 26.662C19.0389 25.7713 20.8422 24.6324 22.2585 23.2452C23.5434 21.9749 24.4487 20.5804 24.9744 19.0619C25.4417 17.6455 25.5439 16.2657 25.281 14.9223C25.1642 14.0754 24.8612 13.3089 24.3721 12.6226C23.8829 11.9363 23.2697 11.3924 22.5323 10.9909C21.7949 10.5893 20.9955 10.3812 20.134 10.3666C18.7322 10.4104 17.4473 10.8412 16.2792 11.6589L16.3011 11.637C15.7462 11.2573 15.1548 10.958 14.527 10.739C13.8699 10.5054 13.1982 10.3812 12.5119 10.3666H12.49C11.6139 10.3666 10.7999 10.5711 10.0479 10.9799C9.29595 11.3887 8.67538 11.94 8.18623 12.6335C7.69707 13.3271 7.40139 14.0973 7.29918 14.9442V14.9661C7.03635 16.3241 7.14586 17.7112 7.62771 19.1276C8.13877 20.6462 9.03677 22.0333 10.3217 23.289C11.7527 24.6762 13.5706 25.8078 15.7754 26.6839ZM9.00756 15.3385C9.06597 14.7544 9.25579 14.2215 9.57703 13.7396C9.89826 13.2578 10.3144 12.8781 10.8255 12.6007C11.3365 12.3232 11.8914 12.1845 12.49 12.1845C13.775 12.2721 14.892 12.7029 15.8411 13.4768H15.8192L16.3011 13.8272L16.8048 13.4549C17.2721 13.0752 17.7831 12.7832 18.338 12.5788C18.9074 12.3452 19.4988 12.2137 20.1121 12.1845H20.134C20.718 12.1991 21.262 12.3452 21.7657 12.6226C22.2695 12.9 22.6856 13.276 23.0141 13.7506C23.3427 14.2251 23.5361 14.7471 23.5946 15.3166V15.3385C23.799 16.4044 23.6895 17.5141 23.266 18.6676C22.8134 19.8942 22.0322 21.0258 20.9225 22.0625C19.7105 23.2306 18.1701 24.1943 16.3011 24.9536C14.4321 24.2235 12.8843 23.2744 11.6578 22.1063C10.548 21.0696 9.76685 19.9307 9.3142 18.6895C8.89075 17.536 8.78854 16.419 9.00756 15.3385Z" fill="#030712"/>
</g>
<defs>
<clipPath id="clip0_1_1001">
<rect width="21.69" height="33" fill="white" transform="matrix(1 0 0 -1 7.16003 35.08)"/>
</clipPath>
</defs>
</svg>
