<svg width="15" height="15" viewBox="0 0 15 15" fill="none" xmlns="http://www.w3.org/2000/svg">
<g clip-path="url(#clip0_1_993)">
<path d="M8.12396 1.74202C7.70396 1.74202 7.31429 1.84702 6.95496 2.05702C6.59563 2.26702 6.31096 2.55168 6.10096 2.91102C5.89096 3.27035 5.78596 3.66002 5.78596 4.08002H4.59596C4.59596 3.44535 4.75229 2.85968 5.06496 2.32302C5.37763 1.78635 5.80229 1.36168 6.33896 1.04902C6.87563 0.73635 7.46129 0.580017 8.09596 0.580017C8.73063 0.580017 9.3163 0.73635 9.85296 1.04902C10.3896 1.36168 10.8143 1.78635 11.127 2.32302C11.4396 2.85968 11.596 3.44535 11.596 4.08002H13.892C14.228 4.08002 14.5126 4.19902 14.746 4.43702C14.9793 4.67502 15.096 4.96668 15.096 5.31202C15.096 5.38668 15.0913 5.45668 15.082 5.52202L13.78 13.054C13.7053 13.4927 13.5 13.8567 13.164 14.146C12.828 14.4354 12.4406 14.58 12.002 14.58H4.18996C3.75129 14.58 3.36396 14.4354 3.02796 14.146C2.69196 13.8567 2.48663 13.4927 2.41196 13.054L1.10996 5.53602C1.05396 5.20002 1.12163 4.89202 1.31296 4.61202C1.50429 4.33202 1.76329 4.15935 2.08996 4.09402C2.15529 4.08468 2.22529 4.08002 2.29996 4.08002H10.462C10.462 3.66002 10.357 3.27035 10.147 2.91102C9.93696 2.55168 9.6523 2.26702 9.29296 2.05702C8.93363 1.84702 8.54396 1.74202 8.12396 1.74202ZM13.892 5.24202H2.29996C2.29063 5.24202 2.27663 5.26068 2.25796 5.29802V5.32602L3.55996 12.858C3.58796 13.0074 3.65329 13.1334 3.75596 13.236C3.85863 13.3387 3.97996 13.3947 4.11996 13.404L4.18996 13.418H12.002C12.142 13.418 12.2703 13.3737 12.387 13.285C12.5036 13.1964 12.5806 13.0774 12.618 12.928L13.934 5.31202C13.934 5.27468 13.9246 5.25602 13.906 5.25602L13.892 5.24202Z" fill="white"/>
</g>
<defs>
<clipPath id="clip0_1_993">
<rect width="14" height="14" fill="white" transform="matrix(1 0 0 -1 0.969971 14.58)"/>
</clipPath>
</defs>
</svg>
