<svg width="36" height="47" viewBox="0 0 36 47" fill="none" xmlns="http://www.w3.org/2000/svg">
<g clip-path="url(#clip0_1_984)">
<path d="M20.149 23.0871H15.746V18.6161C15.746 18.4688 15.695 18.3384 15.593 18.2251C15.491 18.1118 15.355 18.0551 15.185 18.0551C15.015 18.0551 14.879 18.1118 14.777 18.2251C14.675 18.3384 14.624 18.4688 14.624 18.6161V23.0191H10.221C10.0737 23.0191 9.94337 23.0701 9.83003 23.1721C9.7167 23.2741 9.66003 23.4129 9.66003 23.5886C9.66003 23.7643 9.71103 23.9003 9.81303 23.9966C9.91503 24.0929 10.051 24.1411 10.221 24.1411H14.624V28.5441C14.624 28.6914 14.675 28.8218 14.777 28.9351C14.879 29.0484 15.0179 29.1051 15.1935 29.1051C15.3692 29.1051 15.5052 29.0541 15.6015 28.9521C15.6979 28.8501 15.746 28.7141 15.746 28.5441V24.1411H20.149C20.2964 24.1411 20.4267 24.0901 20.54 23.9881C20.6534 23.8861 20.71 23.7501 20.71 23.5801C20.71 23.4101 20.6562 23.2854 20.5485 23.2061C20.4409 23.1268 20.3077 23.0871 20.149 23.0871Z" fill="#030712"/>
</g>
<defs>
<clipPath id="clip0_1_984">
<rect width="17" height="17" fill="white" transform="matrix(1 0 0 -1 9.5 32.0801)"/>
</clipPath>
</defs>
</svg>
