<svg width="67" height="12" viewBox="0 0 67 12" fill="none" xmlns="http://www.w3.org/2000/svg">
<g clip-path="url(#clip0_1_945)">
<g clip-path="url(#clip1_1_945)">
<path d="M6.292 0.965077C6.23333 0.847744 6.149 0.754244 6.039 0.684577C5.929 0.61491 5.808 0.580077 5.676 0.580077C5.544 0.580077 5.42116 0.61491 5.3075 0.684577C5.19383 0.754244 5.10766 0.847744 5.049 0.965077L3.674 3.81408L0.582997 4.26508C0.45833 4.27974 0.344664 4.32924 0.241997 4.41358C0.13933 4.49791 0.0696636 4.60241 0.032997 4.72708C-0.00366971 4.85174 -0.00733637 4.97824 0.021997 5.10658C0.0513303 5.23491 0.113664 5.34308 0.208997 5.43108L2.442 7.65308L1.914 10.7771C1.892 10.9091 1.90666 11.0337 1.958 11.1511C2.00933 11.2684 2.08633 11.3674 2.189 11.4481C2.29166 11.5287 2.409 11.5727 2.541 11.5801C2.673 11.5874 2.79766 11.5617 2.915 11.5031L5.676 10.0291L8.437 11.5031C8.55433 11.5617 8.67716 11.5874 8.8055 11.5801C8.93383 11.5727 9.053 11.5306 9.163 11.4536C9.273 11.3766 9.35183 11.2776 9.3995 11.1566C9.44716 11.0356 9.46 10.9091 9.438 10.7771L8.899 7.65308L11.143 5.43108C11.2383 5.34308 11.3007 5.23491 11.33 5.10658C11.3593 4.97824 11.352 4.85174 11.308 4.72708C11.264 4.60241 11.1943 4.49791 11.099 4.41358C11.0037 4.32924 10.89 4.27974 10.758 4.26508L7.678 3.81408L6.292 0.965077Z" fill="#D1D5DB"/>
<path d="M19.6671 0.965077C19.6085 0.847744 19.5241 0.754244 19.4141 0.684577C19.3041 0.61491 19.1831 0.580077 19.0511 0.580077C18.9191 0.580077 18.7963 0.61491 18.6826 0.684577C18.569 0.754244 18.4828 0.847744 18.4241 0.965077L17.0491 3.81408L13.9581 4.26508C13.8335 4.27974 13.7198 4.32924 13.6171 4.41358C13.5145 4.49791 13.4448 4.60241 13.4081 4.72708C13.3715 4.85174 13.3678 4.97824 13.3971 5.10658C13.4265 5.23491 13.4888 5.34308 13.5841 5.43108L15.8171 7.65308L15.2891 10.7771C15.2671 10.9091 15.2818 11.0337 15.3331 11.1511C15.3845 11.2684 15.4615 11.3674 15.5641 11.4481C15.6668 11.5287 15.7841 11.5727 15.9161 11.5801C16.0481 11.5874 16.1728 11.5617 16.2901 11.5031L19.0511 10.0291L21.8121 11.5031C21.9295 11.5617 22.0523 11.5874 22.1806 11.5801C22.309 11.5727 22.4281 11.5306 22.5381 11.4536C22.6481 11.3766 22.727 11.2776 22.7746 11.1566C22.8223 11.0356 22.8351 10.9091 22.8131 10.7771L22.2741 7.65308L24.5181 5.43108C24.6135 5.34308 24.6758 5.23491 24.7051 5.10658C24.7345 4.97824 24.7271 4.85174 24.6831 4.72708C24.6391 4.60241 24.5695 4.49791 24.4741 4.41358C24.3788 4.32924 24.2651 4.27974 24.1331 4.26508L21.0531 3.81408L19.6671 0.965077Z" fill="#D1D5DB"/>
<path d="M33.0421 0.965077C32.9835 0.847744 32.8991 0.754244 32.7891 0.684577C32.6791 0.61491 32.5581 0.580077 32.4261 0.580077C32.2941 0.580077 32.1713 0.61491 32.0576 0.684577C31.944 0.754244 31.8578 0.847744 31.7991 0.965077L30.4241 3.81408L27.3331 4.26508C27.2085 4.27974 27.0948 4.32924 26.9921 4.41358C26.8895 4.49791 26.8198 4.60241 26.7831 4.72708C26.7465 4.85174 26.7428 4.97824 26.7721 5.10658C26.8015 5.23491 26.8638 5.34308 26.9591 5.43108L29.1921 7.65308L28.6641 10.7771C28.6421 10.9091 28.6568 11.0337 28.7081 11.1511C28.7595 11.2684 28.8365 11.3674 28.9391 11.4481C29.0418 11.5287 29.1591 11.5727 29.2911 11.5801C29.4231 11.5874 29.5478 11.5617 29.6651 11.5031L32.4261 10.0291L35.1871 11.5031C35.3045 11.5617 35.4273 11.5874 35.5556 11.5801C35.684 11.5727 35.8031 11.5306 35.9131 11.4536C36.0231 11.3766 36.102 11.2776 36.1496 11.1566C36.1973 11.0356 36.2101 10.9091 36.1881 10.7771L35.6491 7.65308L37.8931 5.43108C37.9885 5.34308 38.0508 5.23491 38.0801 5.10658C38.1095 4.97824 38.1021 4.85174 38.0581 4.72708C38.0141 4.60241 37.9445 4.49791 37.8491 4.41358C37.7538 4.32924 37.6401 4.27974 37.5081 4.26508L34.4281 3.81408L33.0421 0.965077Z" fill="#D1D5DB"/>
<path d="M46.4171 0.965077C46.3585 0.847744 46.2741 0.754244 46.1641 0.684577C46.0541 0.61491 45.9331 0.580077 45.8011 0.580077C45.6691 0.580077 45.5463 0.61491 45.4326 0.684577C45.319 0.754244 45.2328 0.847744 45.1741 0.965077L43.7991 3.81408L40.7081 4.26508C40.5835 4.27974 40.4698 4.32924 40.3671 4.41358C40.2645 4.49791 40.1948 4.60241 40.1581 4.72708C40.1215 4.85174 40.1178 4.97824 40.1471 5.10658C40.1765 5.23491 40.2388 5.34308 40.3341 5.43108L42.5671 7.65308L42.0391 10.7771C42.0171 10.9091 42.0318 11.0337 42.0831 11.1511C42.1345 11.2684 42.2115 11.3674 42.3141 11.4481C42.4168 11.5287 42.5341 11.5727 42.6661 11.5801C42.7981 11.5874 42.9228 11.5617 43.0401 11.5031L45.8011 10.0291L48.5621 11.5031C48.6795 11.5617 48.8023 11.5874 48.9306 11.5801C49.059 11.5727 49.1781 11.5306 49.2881 11.4536C49.3981 11.3766 49.477 11.2776 49.5246 11.1566C49.5723 11.0356 49.5851 10.9091 49.5631 10.7771L49.0241 7.65308L51.2681 5.43108C51.3635 5.34308 51.4258 5.23491 51.4551 5.10658C51.4845 4.97824 51.4771 4.85174 51.4331 4.72708C51.3891 4.60241 51.3195 4.49791 51.2241 4.41358C51.1288 4.32924 51.0151 4.27974 50.8831 4.26508L47.8031 3.81408L46.4171 0.965077Z" fill="#D1D5DB"/>
<path d="M59.7921 0.965077C59.7335 0.847744 59.6491 0.754244 59.5391 0.684577C59.4291 0.61491 59.3081 0.580077 59.1761 0.580077C59.0441 0.580077 58.9213 0.61491 58.8076 0.684577C58.694 0.754244 58.6078 0.847744 58.5491 0.965077L57.1741 3.81408L54.0831 4.26508C53.9585 4.27974 53.8448 4.32924 53.7421 4.41358C53.6395 4.49791 53.5698 4.60241 53.5331 4.72708C53.4965 4.85174 53.4928 4.97824 53.5221 5.10658C53.5515 5.23491 53.6138 5.34308 53.7091 5.43108L55.9421 7.65308L55.4141 10.7771C55.3921 10.9091 55.4068 11.0337 55.4581 11.1511C55.5095 11.2684 55.5865 11.3674 55.6891 11.4481C55.7918 11.5287 55.9091 11.5727 56.0411 11.5801C56.1731 11.5874 56.2978 11.5617 56.4151 11.5031L59.1761 10.0291L61.9371 11.5031C62.0545 11.5617 62.1773 11.5874 62.3056 11.5801C62.434 11.5727 62.5531 11.5306 62.6631 11.4536C62.7731 11.3766 62.852 11.2776 62.8996 11.1566C62.9473 11.0356 62.9601 10.9091 62.9381 10.7771L62.3991 7.65308L64.6431 5.43108C64.7385 5.34308 64.8008 5.23491 64.8301 5.10658C64.8595 4.97824 64.8521 4.85174 64.8081 4.72708C64.7641 4.60241 64.6945 4.49791 64.5991 4.41358C64.5038 4.32924 64.3901 4.27974 64.2581 4.26508L61.1781 3.81408L59.7921 0.965077Z" fill="#D1D5DB"/>
</g>
<g clip-path="url(#clip2_1_945)">
<g clip-path="url(#clip3_1_945)">
<path d="M6.292 0.965077C6.23333 0.847744 6.149 0.754244 6.039 0.684577C5.929 0.61491 5.808 0.580077 5.676 0.580077C5.544 0.580077 5.42116 0.61491 5.3075 0.684577C5.19383 0.754244 5.10766 0.847744 5.049 0.965077L3.674 3.81408L0.582997 4.26508C0.45833 4.27974 0.344664 4.32924 0.241997 4.41358C0.13933 4.49791 0.0696636 4.60241 0.032997 4.72708C-0.00366971 4.85174 -0.00733637 4.97824 0.021997 5.10658C0.0513303 5.23491 0.113664 5.34308 0.208997 5.43108L2.442 7.65308L1.914 10.7771C1.892 10.9091 1.90666 11.0337 1.958 11.1511C2.00933 11.2684 2.08633 11.3674 2.189 11.4481C2.29166 11.5287 2.409 11.5727 2.541 11.5801C2.673 11.5874 2.79766 11.5617 2.915 11.5031L5.676 10.0291L8.437 11.5031C8.55433 11.5617 8.67716 11.5874 8.8055 11.5801C8.93383 11.5727 9.053 11.5306 9.163 11.4536C9.273 11.3766 9.35183 11.2776 9.3995 11.1566C9.44716 11.0356 9.46 10.9091 9.438 10.7771L8.899 7.65308L11.143 5.43108C11.2383 5.34308 11.3007 5.23491 11.33 5.10658C11.3593 4.97824 11.352 4.85174 11.308 4.72708C11.264 4.60241 11.1943 4.49791 11.099 4.41358C11.0037 4.32924 10.89 4.27974 10.758 4.26508L7.678 3.81408L6.292 0.965077Z" fill="#FACC15"/>
<path d="M19.6671 0.965077C19.6085 0.847744 19.5241 0.754244 19.4141 0.684577C19.3041 0.61491 19.1831 0.580077 19.0511 0.580077C18.9191 0.580077 18.7963 0.61491 18.6826 0.684577C18.569 0.754244 18.4828 0.847744 18.4241 0.965077L17.0491 3.81408L13.9581 4.26508C13.8335 4.27974 13.7198 4.32924 13.6171 4.41358C13.5145 4.49791 13.4448 4.60241 13.4081 4.72708C13.3715 4.85174 13.3678 4.97824 13.3971 5.10658C13.4265 5.23491 13.4888 5.34308 13.5841 5.43108L15.8171 7.65308L15.2891 10.7771C15.2671 10.9091 15.2818 11.0337 15.3331 11.1511C15.3845 11.2684 15.4615 11.3674 15.5641 11.4481C15.6668 11.5287 15.7841 11.5727 15.9161 11.5801C16.0481 11.5874 16.1728 11.5617 16.2901 11.5031L19.0511 10.0291L21.8121 11.5031C21.9295 11.5617 22.0523 11.5874 22.1806 11.5801C22.309 11.5727 22.4281 11.5306 22.5381 11.4536C22.6481 11.3766 22.727 11.2776 22.7746 11.1566C22.8223 11.0356 22.8351 10.9091 22.8131 10.7771L22.2741 7.65308L24.5181 5.43108C24.6135 5.34308 24.6758 5.23491 24.7051 5.10658C24.7345 4.97824 24.7271 4.85174 24.6831 4.72708C24.6391 4.60241 24.5695 4.49791 24.4741 4.41358C24.3788 4.32924 24.2651 4.27974 24.1331 4.26508L21.0531 3.81408L19.6671 0.965077Z" fill="#FACC15"/>
<path d="M33.0421 0.965077C32.9835 0.847744 32.8991 0.754244 32.7891 0.684577C32.6791 0.61491 32.5581 0.580077 32.4261 0.580077C32.2941 0.580077 32.1713 0.61491 32.0576 0.684577C31.944 0.754244 31.8578 0.847744 31.7991 0.965077L30.4241 3.81408L27.3331 4.26508C27.2085 4.27974 27.0948 4.32924 26.9921 4.41358C26.8895 4.49791 26.8198 4.60241 26.7831 4.72708C26.7465 4.85174 26.7428 4.97824 26.7721 5.10658C26.8015 5.23491 26.8638 5.34308 26.9591 5.43108L29.1921 7.65308L28.6641 10.7771C28.6421 10.9091 28.6568 11.0337 28.7081 11.1511C28.7595 11.2684 28.8365 11.3674 28.9391 11.4481C29.0418 11.5287 29.1591 11.5727 29.2911 11.5801C29.4231 11.5874 29.5478 11.5617 29.6651 11.5031L32.4261 10.0291L35.1871 11.5031C35.3045 11.5617 35.4273 11.5874 35.5556 11.5801C35.684 11.5727 35.8031 11.5306 35.9131 11.4536C36.0231 11.3766 36.102 11.2776 36.1496 11.1566C36.1973 11.0356 36.2101 10.9091 36.1881 10.7771L35.6491 7.65308L37.8931 5.43108C37.9885 5.34308 38.0508 5.23491 38.0801 5.10658C38.1095 4.97824 38.1021 4.85174 38.0581 4.72708C38.0141 4.60241 37.9445 4.49791 37.8491 4.41358C37.7538 4.32924 37.6401 4.27974 37.5081 4.26508L34.4281 3.81408L33.0421 0.965077Z" fill="#FACC15"/>
<path d="M46.4171 0.965077C46.3585 0.847744 46.2741 0.754244 46.1641 0.684577C46.0541 0.61491 45.9331 0.580077 45.8011 0.580077C45.6691 0.580077 45.5463 0.61491 45.4326 0.684577C45.319 0.754244 45.2328 0.847744 45.1741 0.965077L43.7991 3.81408L40.7081 4.26508C40.5835 4.27974 40.4698 4.32924 40.3671 4.41358C40.2645 4.49791 40.1948 4.60241 40.1581 4.72708C40.1215 4.85174 40.1178 4.97824 40.1471 5.10658C40.1765 5.23491 40.2388 5.34308 40.3341 5.43108L42.5671 7.65308L42.0391 10.7771C42.0171 10.9091 42.0318 11.0337 42.0831 11.1511C42.1345 11.2684 42.2115 11.3674 42.3141 11.4481C42.4168 11.5287 42.5341 11.5727 42.6661 11.5801C42.7981 11.5874 42.9228 11.5617 43.0401 11.5031L45.8011 10.0291L48.5621 11.5031C48.6795 11.5617 48.8023 11.5874 48.9306 11.5801C49.059 11.5727 49.1781 11.5306 49.2881 11.4536C49.3981 11.3766 49.477 11.2776 49.5246 11.1566C49.5723 11.0356 49.5851 10.9091 49.5631 10.7771L49.0241 7.65308L51.2681 5.43108C51.3635 5.34308 51.4258 5.23491 51.4551 5.10658C51.4845 4.97824 51.4771 4.85174 51.4331 4.72708C51.3891 4.60241 51.3195 4.49791 51.2241 4.41358C51.1288 4.32924 51.0151 4.27974 50.8831 4.26508L47.8031 3.81408L46.4171 0.965077Z" fill="#FACC15"/>
</g>
</g>
</g>
<defs>
<clipPath id="clip0_1_945">
<rect width="66.88" height="11" fill="white" transform="translate(0 0.580078)"/>
</clipPath>
<clipPath id="clip1_1_945">
<rect width="66.88" height="11" fill="white" transform="matrix(1 0 0 -1 0 11.5801)"/>
</clipPath>
<clipPath id="clip2_1_945">
<rect width="40.13" height="11" fill="white" transform="translate(0 0.580078)"/>
</clipPath>
<clipPath id="clip3_1_945">
<rect width="66.88" height="11" fill="white" transform="matrix(1 0 0 -1 0 11.5801)"/>
</clipPath>
</defs>
</svg>
