<svg width="67" height="12" viewBox="0 0 67 12" fill="none" xmlns="http://www.w3.org/2000/svg">
<g clip-path="url(#clip0_1_1028)">
<g clip-path="url(#clip1_1_1028)">
<path d="M6.29206 0.725026C6.23339 0.607693 6.14906 0.514193 6.03906 0.444526C5.92906 0.374859 5.80806 0.340026 5.67606 0.340026C5.54406 0.340026 5.42122 0.374859 5.30756 0.444526C5.19389 0.514193 5.10772 0.607693 5.04906 0.725026L3.67406 3.57403L0.583058 4.02503C0.458391 4.03969 0.344725 4.08919 0.242058 4.17353C0.139391 4.25786 0.0697247 4.36236 0.033058 4.48703C-0.00360867 4.61169 -0.00727534 4.73819 0.022058 4.86653C0.0513913 4.99486 0.113725 5.10303 0.209058 5.19103L2.44206 7.41303L1.91406 10.537C1.89206 10.669 1.90672 10.7937 1.95806 10.911C2.00939 11.0284 2.08639 11.1274 2.18906 11.208C2.29172 11.2887 2.40906 11.3327 2.54106 11.34C2.67306 11.3474 2.79772 11.3217 2.91506 11.263L5.67606 9.78903L8.43706 11.263C8.55439 11.3217 8.67722 11.3474 8.80556 11.34C8.93389 11.3327 9.05306 11.2905 9.16306 11.2135C9.27306 11.1365 9.35189 11.0375 9.39956 10.9165C9.44722 10.7955 9.46006 10.669 9.43806 10.537L8.89906 7.41303L11.1431 5.19103C11.2384 5.10303 11.3007 4.99486 11.3301 4.86653C11.3594 4.73819 11.3521 4.61169 11.3081 4.48703C11.2641 4.36236 11.1944 4.25786 11.0991 4.17353C11.0037 4.08919 10.8901 4.03969 10.7581 4.02503L7.67806 3.57403L6.29206 0.725026Z" fill="#D1D5DB"/>
<path d="M19.6671 0.725026C19.6084 0.607693 19.5241 0.514193 19.4141 0.444526C19.3041 0.374859 19.1831 0.340026 19.0511 0.340026C18.9191 0.340026 18.7962 0.374859 18.6826 0.444526C18.5689 0.514193 18.4827 0.607693 18.4241 0.725026L17.0491 3.57403L13.9581 4.02503C13.8334 4.03969 13.7197 4.08919 13.6171 4.17353C13.5144 4.25786 13.4447 4.36236 13.4081 4.48703C13.3714 4.61169 13.3677 4.73819 13.3971 4.86653C13.4264 4.99486 13.4887 5.10303 13.5841 5.19103L15.8171 7.41303L15.2891 10.537C15.2671 10.669 15.2817 10.7937 15.3331 10.911C15.3844 11.0284 15.4614 11.1274 15.5641 11.208C15.6667 11.2887 15.7841 11.3327 15.9161 11.34C16.0481 11.3474 16.1727 11.3217 16.2901 11.263L19.0511 9.78903L21.8121 11.263C21.9294 11.3217 22.0522 11.3474 22.1806 11.34C22.3089 11.3327 22.4281 11.2905 22.5381 11.2135C22.6481 11.1365 22.7269 11.0375 22.7746 10.9165C22.8222 10.7955 22.8351 10.669 22.8131 10.537L22.2741 7.41303L24.5181 5.19103C24.6134 5.10303 24.6757 4.99486 24.7051 4.86653C24.7344 4.73819 24.7271 4.61169 24.6831 4.48703C24.6391 4.36236 24.5694 4.25786 24.4741 4.17353C24.3787 4.08919 24.2651 4.03969 24.1331 4.02503L21.0531 3.57403L19.6671 0.725026Z" fill="#D1D5DB"/>
<path d="M33.0421 0.725026C32.9834 0.607693 32.8991 0.514193 32.7891 0.444526C32.6791 0.374859 32.5581 0.340026 32.4261 0.340026C32.2941 0.340026 32.1713 0.374859 32.0576 0.444526C31.9439 0.514193 31.8578 0.607693 31.7991 0.725026L30.4241 3.57403L27.3331 4.02503C27.2084 4.03969 27.0948 4.08919 26.9921 4.17353C26.8894 4.25786 26.8198 4.36236 26.7831 4.48703C26.7464 4.61169 26.7428 4.73819 26.7721 4.86653C26.8014 4.99486 26.8638 5.10303 26.9591 5.19103L29.1921 7.41303L28.6641 10.537C28.6421 10.669 28.6568 10.7937 28.7081 10.911C28.7594 11.0284 28.8364 11.1274 28.9391 11.208C29.0418 11.2887 29.1591 11.3327 29.2911 11.34C29.4231 11.3474 29.5478 11.3217 29.6651 11.263L32.4261 9.78903L35.1871 11.263C35.3044 11.3217 35.4273 11.3474 35.5556 11.34C35.6839 11.3327 35.8031 11.2905 35.9131 11.2135C36.0231 11.1365 36.1019 11.0375 36.1496 10.9165C36.1973 10.7955 36.2101 10.669 36.1881 10.537L35.6491 7.41303L37.8931 5.19103C37.9884 5.10303 38.0508 4.99486 38.0801 4.86653C38.1094 4.73819 38.1021 4.61169 38.0581 4.48703C38.0141 4.36236 37.9444 4.25786 37.8491 4.17353C37.7538 4.08919 37.6401 4.03969 37.5081 4.02503L34.4281 3.57403L33.0421 0.725026Z" fill="#D1D5DB"/>
<path d="M46.4171 0.725026C46.3584 0.607693 46.2741 0.514193 46.1641 0.444526C46.0541 0.374859 45.9331 0.340026 45.8011 0.340026C45.6691 0.340026 45.5463 0.374859 45.4326 0.444526C45.3189 0.514193 45.2328 0.607693 45.1741 0.725026L43.7991 3.57403L40.7081 4.02503C40.5834 4.03969 40.4698 4.08919 40.3671 4.17353C40.2644 4.25786 40.1948 4.36236 40.1581 4.48703C40.1214 4.61169 40.1178 4.73819 40.1471 4.86653C40.1764 4.99486 40.2388 5.10303 40.3341 5.19103L42.5671 7.41303L42.0391 10.537C42.0171 10.669 42.0318 10.7937 42.0831 10.911C42.1344 11.0284 42.2114 11.1274 42.3141 11.208C42.4168 11.2887 42.5341 11.3327 42.6661 11.34C42.7981 11.3474 42.9228 11.3217 43.0401 11.263L45.8011 9.78903L48.5621 11.263C48.6794 11.3217 48.8023 11.3474 48.9306 11.34C49.0589 11.3327 49.1781 11.2905 49.2881 11.2135C49.3981 11.1365 49.4769 11.0375 49.5246 10.9165C49.5723 10.7955 49.5851 10.669 49.5631 10.537L49.0241 7.41303L51.2681 5.19103C51.3634 5.10303 51.4258 4.99486 51.4551 4.86653C51.4844 4.73819 51.4771 4.61169 51.4331 4.48703C51.3891 4.36236 51.3194 4.25786 51.2241 4.17353C51.1288 4.08919 51.0151 4.03969 50.8831 4.02503L47.8031 3.57403L46.4171 0.725026Z" fill="#D1D5DB"/>
<path d="M59.7921 0.725026C59.7334 0.607693 59.6491 0.514193 59.5391 0.444526C59.4291 0.374859 59.3081 0.340026 59.1761 0.340026C59.0441 0.340026 58.9213 0.374859 58.8076 0.444526C58.6939 0.514193 58.6078 0.607693 58.5491 0.725026L57.1741 3.57403L54.0831 4.02503C53.9584 4.03969 53.8448 4.08919 53.7421 4.17353C53.6394 4.25786 53.5698 4.36236 53.5331 4.48703C53.4964 4.61169 53.4928 4.73819 53.5221 4.86653C53.5514 4.99486 53.6138 5.10303 53.7091 5.19103L55.9421 7.41303L55.4141 10.537C55.3921 10.669 55.4068 10.7937 55.4581 10.911C55.5094 11.0284 55.5864 11.1274 55.6891 11.208C55.7918 11.2887 55.9091 11.3327 56.0411 11.34C56.1731 11.3474 56.2978 11.3217 56.4151 11.263L59.1761 9.78903L61.9371 11.263C62.0544 11.3217 62.1773 11.3474 62.3056 11.34C62.4339 11.3327 62.5531 11.2905 62.6631 11.2135C62.7731 11.1365 62.8519 11.0375 62.8996 10.9165C62.9473 10.7955 62.9601 10.669 62.9381 10.537L62.3991 7.41303L64.6431 5.19103C64.7384 5.10303 64.8008 4.99486 64.8301 4.86653C64.8594 4.73819 64.8521 4.61169 64.8081 4.48703C64.7641 4.36236 64.6944 4.25786 64.5991 4.17353C64.5038 4.08919 64.3901 4.03969 64.2581 4.02503L61.1781 3.57403L59.7921 0.725026Z" fill="#D1D5DB"/>
</g>
<g clip-path="url(#clip2_1_1028)">
<g clip-path="url(#clip3_1_1028)">
<path d="M6.29206 0.725026C6.23339 0.607693 6.14906 0.514193 6.03906 0.444526C5.92906 0.374859 5.80806 0.340026 5.67606 0.340026C5.54406 0.340026 5.42122 0.374859 5.30756 0.444526C5.19389 0.514193 5.10772 0.607693 5.04906 0.725026L3.67406 3.57403L0.583058 4.02503C0.458391 4.03969 0.344725 4.08919 0.242058 4.17353C0.139391 4.25786 0.0697247 4.36236 0.033058 4.48703C-0.00360867 4.61169 -0.00727534 4.73819 0.022058 4.86653C0.0513913 4.99486 0.113725 5.10303 0.209058 5.19103L2.44206 7.41303L1.91406 10.537C1.89206 10.669 1.90672 10.7937 1.95806 10.911C2.00939 11.0284 2.08639 11.1274 2.18906 11.208C2.29172 11.2887 2.40906 11.3327 2.54106 11.34C2.67306 11.3474 2.79772 11.3217 2.91506 11.263L5.67606 9.78903L8.43706 11.263C8.55439 11.3217 8.67722 11.3474 8.80556 11.34C8.93389 11.3327 9.05306 11.2905 9.16306 11.2135C9.27306 11.1365 9.35189 11.0375 9.39956 10.9165C9.44722 10.7955 9.46006 10.669 9.43806 10.537L8.89906 7.41303L11.1431 5.19103C11.2384 5.10303 11.3007 4.99486 11.3301 4.86653C11.3594 4.73819 11.3521 4.61169 11.3081 4.48703C11.2641 4.36236 11.1944 4.25786 11.0991 4.17353C11.0037 4.08919 10.8901 4.03969 10.7581 4.02503L7.67806 3.57403L6.29206 0.725026Z" fill="#FACC15"/>
<path d="M19.6671 0.725026C19.6084 0.607693 19.5241 0.514193 19.4141 0.444526C19.3041 0.374859 19.1831 0.340026 19.0511 0.340026C18.9191 0.340026 18.7962 0.374859 18.6826 0.444526C18.5689 0.514193 18.4827 0.607693 18.4241 0.725026L17.0491 3.57403L13.9581 4.02503C13.8334 4.03969 13.7197 4.08919 13.6171 4.17353C13.5144 4.25786 13.4447 4.36236 13.4081 4.48703C13.3714 4.61169 13.3677 4.73819 13.3971 4.86653C13.4264 4.99486 13.4887 5.10303 13.5841 5.19103L15.8171 7.41303L15.2891 10.537C15.2671 10.669 15.2817 10.7937 15.3331 10.911C15.3844 11.0284 15.4614 11.1274 15.5641 11.208C15.6667 11.2887 15.7841 11.3327 15.9161 11.34C16.0481 11.3474 16.1727 11.3217 16.2901 11.263L19.0511 9.78903L21.8121 11.263C21.9294 11.3217 22.0522 11.3474 22.1806 11.34C22.3089 11.3327 22.4281 11.2905 22.5381 11.2135C22.6481 11.1365 22.7269 11.0375 22.7746 10.9165C22.8222 10.7955 22.8351 10.669 22.8131 10.537L22.2741 7.41303L24.5181 5.19103C24.6134 5.10303 24.6757 4.99486 24.7051 4.86653C24.7344 4.73819 24.7271 4.61169 24.6831 4.48703C24.6391 4.36236 24.5694 4.25786 24.4741 4.17353C24.3787 4.08919 24.2651 4.03969 24.1331 4.02503L21.0531 3.57403L19.6671 0.725026Z" fill="#FACC15"/>
<path d="M33.0421 0.725026C32.9834 0.607693 32.8991 0.514193 32.7891 0.444526C32.6791 0.374859 32.5581 0.340026 32.4261 0.340026C32.2941 0.340026 32.1713 0.374859 32.0576 0.444526C31.9439 0.514193 31.8578 0.607693 31.7991 0.725026L30.4241 3.57403L27.3331 4.02503C27.2084 4.03969 27.0948 4.08919 26.9921 4.17353C26.8894 4.25786 26.8198 4.36236 26.7831 4.48703C26.7464 4.61169 26.7428 4.73819 26.7721 4.86653C26.8014 4.99486 26.8638 5.10303 26.9591 5.19103L29.1921 7.41303L28.6641 10.537C28.6421 10.669 28.6568 10.7937 28.7081 10.911C28.7594 11.0284 28.8364 11.1274 28.9391 11.208C29.0418 11.2887 29.1591 11.3327 29.2911 11.34C29.4231 11.3474 29.5478 11.3217 29.6651 11.263L32.4261 9.78903L35.1871 11.263C35.3044 11.3217 35.4273 11.3474 35.5556 11.34C35.6839 11.3327 35.8031 11.2905 35.9131 11.2135C36.0231 11.1365 36.1019 11.0375 36.1496 10.9165C36.1973 10.7955 36.2101 10.669 36.1881 10.537L35.6491 7.41303L37.8931 5.19103C37.9884 5.10303 38.0508 4.99486 38.0801 4.86653C38.1094 4.73819 38.1021 4.61169 38.0581 4.48703C38.0141 4.36236 37.9444 4.25786 37.8491 4.17353C37.7538 4.08919 37.6401 4.03969 37.5081 4.02503L34.4281 3.57403L33.0421 0.725026Z" fill="#FACC15"/>
<path d="M46.4171 0.725026C46.3584 0.607693 46.2741 0.514193 46.1641 0.444526C46.0541 0.374859 45.9331 0.340026 45.8011 0.340026C45.6691 0.340026 45.5463 0.374859 45.4326 0.444526C45.3189 0.514193 45.2328 0.607693 45.1741 0.725026L43.7991 3.57403L40.7081 4.02503C40.5834 4.03969 40.4698 4.08919 40.3671 4.17353C40.2644 4.25786 40.1948 4.36236 40.1581 4.48703C40.1214 4.61169 40.1178 4.73819 40.1471 4.86653C40.1764 4.99486 40.2388 5.10303 40.3341 5.19103L42.5671 7.41303L42.0391 10.537C42.0171 10.669 42.0318 10.7937 42.0831 10.911C42.1344 11.0284 42.2114 11.1274 42.3141 11.208C42.4168 11.2887 42.5341 11.3327 42.6661 11.34C42.7981 11.3474 42.9228 11.3217 43.0401 11.263L45.8011 9.78903L48.5621 11.263C48.6794 11.3217 48.8023 11.3474 48.9306 11.34C49.0589 11.3327 49.1781 11.2905 49.2881 11.2135C49.3981 11.1365 49.4769 11.0375 49.5246 10.9165C49.5723 10.7955 49.5851 10.669 49.5631 10.537L49.0241 7.41303L51.2681 5.19103C51.3634 5.10303 51.4258 4.99486 51.4551 4.86653C51.4844 4.73819 51.4771 4.61169 51.4331 4.48703C51.3891 4.36236 51.3194 4.25786 51.2241 4.17353C51.1288 4.08919 51.0151 4.03969 50.8831 4.02503L47.8031 3.57403L46.4171 0.725026Z" fill="#FACC15"/>
</g>
</g>
</g>
<defs>
<clipPath id="clip0_1_1028">
<rect width="66.88" height="11" fill="white" transform="translate(0 0.340027)"/>
</clipPath>
<clipPath id="clip1_1_1028">
<rect width="66.88" height="11" fill="white" transform="matrix(1 0 0 -1 0 11.34)"/>
</clipPath>
<clipPath id="clip2_1_1028">
<rect width="49.08" height="11" fill="white" transform="translate(0 0.340027)"/>
</clipPath>
<clipPath id="clip3_1_1028">
<rect width="66.88" height="11" fill="white" transform="matrix(1 0 0 -1 0 11.34)"/>
</clipPath>
</defs>
</svg>
