<svg width="37" height="35" viewBox="0 0 37 35" fill="none" xmlns="http://www.w3.org/2000/svg">
<rect x="0.669983" y="0.950012" width="36" height="34" rx="8" fill="#16A34A"/>
<g clip-path="url(#clip0_1_1079)">
<path d="M25.61 10.45H9.36998C9.16998 10.4767 9.00332 10.57 8.86998 10.73C8.73665 10.89 8.66998 11.07 8.66998 11.27C8.66998 11.47 8.73665 11.6533 8.86998 11.82C9.00332 11.9867 9.16998 12.0833 9.36998 12.11H12.59L12.01 19.49V19.63C12.01 20.0833 12.1733 20.4733 12.5 20.8C12.8266 21.1267 13.2166 21.29 13.67 21.29H23.89C24.29 21.29 24.64 21.1667 24.94 20.92C25.24 20.6733 25.43 20.37 25.51 20.01L27.23 12.49C27.2566 12.33 27.27 12.2033 27.27 12.11C27.27 11.6433 27.11 11.25 26.79 10.93C26.47 10.61 26.0766 10.45 25.61 10.45ZM23.89 19.61H13.67L14.25 12.11H25.61L23.89 19.61ZM15.21 25.45C15.6766 25.45 16.0733 25.2867 16.4 24.96C16.7266 24.6333 16.89 24.2367 16.89 23.77C16.89 23.3033 16.7266 22.91 16.4 22.59C16.0733 22.27 15.6766 22.11 15.21 22.11C14.7566 22.11 14.3666 22.27 14.04 22.59C13.7133 22.91 13.55 23.3033 13.55 23.77C13.55 24.2367 13.7133 24.6333 14.04 24.96C14.3666 25.2867 14.7566 25.45 15.21 25.45ZM22.71 25.45C23.1766 25.45 23.5733 25.2867 23.9 24.96C24.2266 24.6333 24.39 24.2367 24.39 23.77C24.39 23.3033 24.2266 22.91 23.9 22.59C23.5733 22.27 23.1766 22.11 22.71 22.11C22.2566 22.11 21.8666 22.27 21.54 22.59C21.2133 22.91 21.05 23.3033 21.05 23.77C21.05 24.2367 21.2133 24.6333 21.54 24.96C21.8666 25.2867 22.2566 25.45 22.71 25.45Z" fill="white"/>
</g>
<defs>
<clipPath id="clip0_1_1079">
<rect width="20" height="20" fill="white" transform="matrix(1 0 0 -1 8.66998 27.95)"/>
</clipPath>
</defs>
</svg>
