<svg width="28" height="29" viewBox="0 0 28 29" fill="none" xmlns="http://www.w3.org/2000/svg">
<path d="M22.084 4.00592H3.436C2.85734 4.00592 2.316 4.14592 1.812 4.42592C1.308 4.70592 0.90667 5.08859 0.608004 5.57392C0.309337 6.05926 0.160004 6.59126 0.160004 7.16992V21.1699C0.160004 21.7486 0.30467 22.2899 0.594004 22.7939C0.883337 23.2979 1.27534 23.6993 1.77 23.9979C2.26467 24.2966 2.82 24.4459 3.436 24.4459H22.084C22.6627 24.4459 23.204 24.3013 23.708 24.0119C24.212 23.7226 24.6133 23.3306 24.912 22.8359C25.2107 22.3413 25.36 21.7859 25.36 21.1699V7.16992C25.36 6.59126 25.2107 6.05926 24.912 5.57392C24.6133 5.08859 24.212 4.70592 23.708 4.42592C23.204 4.14592 22.6627 4.00592 22.084 4.00592ZM3.436 5.76992H22.084C22.4947 5.76992 22.8307 5.90992 23.092 6.18992C23.3533 6.46992 23.484 6.79659 23.484 7.16992V7.86992L13.46 14.2819C13.2173 14.3939 12.9653 14.4499 12.704 14.4499C12.4427 14.4499 12.1907 14.3939 11.948 14.2819L2.036 7.86992V7.16992C2.036 6.75926 2.16667 6.42326 2.428 6.16192C2.68934 5.90059 3.02534 5.76992 3.436 5.76992ZM22.084 22.6819H3.436C3.044 22.6819 2.71267 22.5373 2.442 22.2479C2.17134 21.9586 2.036 21.6366 2.036 21.2819V9.96992L11.136 15.7939C11.528 16.1113 12.0693 16.2699 12.76 16.2699C13.4507 16.2699 13.992 16.1113 14.384 15.7939L23.484 9.96992V21.1699C23.484 21.5806 23.3533 21.9353 23.092 22.2339C22.8307 22.5326 22.4947 22.6819 22.084 22.6819Z" fill="#111827"/>
</svg>
