<svg width="28" height="29" viewBox="0 0 28 29" fill="none" xmlns="http://www.w3.org/2000/svg">
<path d="M22.3432 17.1059C21.1299 16.9752 20.1219 16.7046 19.3192 16.2939C18.7406 16.0699 18.1479 16.0279 17.5412 16.1679C16.9346 16.3079 16.3979 16.5832 15.9312 16.9939L14.8672 18.1699C12.5152 16.6392 10.5739 14.6979 9.04323 12.3459L10.1072 11.2819C10.5552 10.8339 10.8399 10.3066 10.9612 9.6999C11.0826 9.09323 11.0312 8.49123 10.8072 7.8939C10.4712 7.01657 10.2379 6.00857 10.1072 4.8699C9.97656 4.10456 9.59856 3.46523 8.97323 2.9519C8.3479 2.43857 7.6339 2.1819 6.83123 2.1819H3.10723C2.52856 2.21923 2.01056 2.4059 1.55323 2.7419C1.0959 3.0779 0.741229 3.50723 0.489229 4.0299C0.237229 4.55256 0.129896 5.10323 0.167229 5.6819C0.353896 7.54856 0.764563 9.37323 1.39923 11.1559C2.0339 12.9386 2.8739 14.6139 3.91923 16.1819C5.7859 19.1312 8.1939 21.5392 11.1432 23.4059C12.7299 24.3952 14.4099 25.2072 16.1832 25.8419C17.9566 26.4766 19.7766 26.9152 21.6432 27.1579H22.0072C22.3992 27.1579 22.7912 27.0739 23.1832 26.9059C23.5752 26.7379 23.9206 26.5092 24.2192 26.2199C24.5179 25.9306 24.7466 25.5899 24.9052 25.1979C25.0639 24.8059 25.1432 24.4046 25.1432 23.9939V20.4939C25.1432 19.6352 24.8819 18.8886 24.3592 18.2539C23.8366 17.6192 23.1646 17.2366 22.3432 17.1059ZM23.2672 20.3819V23.8819C23.2672 24.2739 23.1179 24.6286 22.8192 24.9459C22.4832 25.2446 22.1286 25.3939 21.7552 25.3939H21.6432C19.9259 25.2259 18.2552 24.8526 16.6312 24.2739C14.9512 23.6766 13.3926 22.8832 11.9552 21.8939C10.6299 21.0352 9.39323 20.0319 8.24523 18.8839C7.09723 17.7359 6.08456 16.4899 5.20723 15.1459C4.2739 13.6899 3.51323 12.1406 2.92523 10.4979C2.33723 8.85523 1.93123 7.17523 1.70723 5.4579C1.76323 5.02857 1.93123 4.66923 2.21123 4.3799C2.49123 4.09056 2.82723 3.9459 3.21923 3.9459H6.83123C7.1859 3.9459 7.5079 4.0719 7.79723 4.3239C8.08656 4.5759 8.23123 4.8699 8.23123 5.2059C8.26856 5.69123 8.3619 6.23256 8.51123 6.8299C8.60456 7.20323 8.7539 7.74457 8.95923 8.4539L9.04323 8.7059C9.15523 9.00457 9.18323 9.28923 9.12723 9.5599C9.07123 9.83056 8.93123 10.0592 8.70723 10.2459L7.41923 11.6459C7.25123 11.7579 7.15323 11.9119 7.12523 12.1079C7.09723 12.3039 7.11123 12.4952 7.16723 12.6819C8.04456 14.1939 9.11323 15.5799 10.3732 16.8399C11.6332 18.0999 13.0192 19.1686 14.5312 20.0459C14.6992 20.1579 14.8859 20.1952 15.0912 20.1579C15.2966 20.1206 15.4552 20.0366 15.5672 19.9059L17.1072 18.3939C17.2939 18.2072 17.5366 18.0766 17.8352 18.0019C18.1339 17.9272 18.3952 17.9459 18.6192 18.0579C19.7019 18.4872 20.8686 18.7579 22.1192 18.8699C22.4739 18.9259 22.7726 19.1079 23.0152 19.4159C23.2579 19.7239 23.3419 20.0459 23.2672 20.3819ZM14.8672 3.8059C16.3792 3.95523 17.7512 4.4219 18.9832 5.2059C20.2152 5.9899 21.2232 6.9979 22.0072 8.2299C22.7912 9.4619 23.2579 10.8339 23.4072 12.3459C23.4072 12.5699 23.4959 12.7612 23.6732 12.9199C23.8506 13.0786 24.0326 13.1579 24.2192 13.1579H24.3312C24.5552 13.1579 24.7466 13.0599 24.9052 12.8639C25.0639 12.6679 25.1432 12.4486 25.1432 12.2059C24.9566 10.4512 24.3872 8.83657 23.4352 7.3619C22.5206 5.92457 21.3306 4.74857 19.8652 3.8339C18.3999 2.91923 16.7806 2.36856 15.0072 2.1819C14.7646 2.1819 14.5452 2.26123 14.3492 2.4199C14.1532 2.57857 14.0552 2.76056 14.0552 2.9659C14.0552 3.17123 14.1346 3.36257 14.2932 3.5399C14.4519 3.71723 14.6432 3.8059 14.8672 3.8059ZM14.0552 7.5579C13.9992 7.7819 14.0459 7.99656 14.1952 8.2019C14.3446 8.40723 14.5312 8.5379 14.7552 8.5939C15.7259 8.78057 16.5706 9.2379 17.2892 9.9659C18.0079 10.6939 18.4886 11.5619 18.7312 12.5699C18.7872 12.7939 18.8899 12.9666 19.0392 13.0879C19.1886 13.2092 19.3566 13.2699 19.5432 13.2699H19.6552C19.8979 13.2139 20.0892 13.0832 20.2292 12.8779C20.3692 12.6726 20.4112 12.4486 20.3552 12.2059C20.1312 10.8806 19.5386 9.73256 18.5772 8.7619C17.6159 7.79123 16.4632 7.15656 15.1192 6.8579C14.8766 6.8019 14.6526 6.83457 14.4472 6.9559C14.2419 7.07723 14.1112 7.2779 14.0552 7.5579Z" fill="#111827"/>
</svg>
